<svg width="43" height="29" viewBox="0 0 43 29" fill="none" xmlns="http://www.w3.org/2000/svg">
<path d="M41.6355 24.9228L41.6355 3.1748L38.3022 1M41.6355 24.9228L38.3022 27.0976L24.9688 18.3984M41.6355 24.9228L28.3022 16.2236M38.3022 1L38.3022 18.3984L31.6355 14.0488L34.9688 11.874L21.6355 20.5732L8.30217 11.874L11.6355 14.0488L4.96883 18.3984L4.96883 9.69918L4.96883 0.999998M38.3022 1L21.6355 11.874C15.1268 7.62743 11.4776 5.24655 4.96883 0.999998M34.9688 16.2236L34.9688 7.52439L21.6355 16.2236L8.30217 7.52439L8.30217 16.2236M1.6355 24.9228L4.96883 27.0976L18.3022 18.3984M1.6355 24.9228L1.6355 14.0488L1.6355 3.17479L4.96883 0.999998M1.6355 24.9228L8.30216 20.5732L14.9688 16.2236" stroke="black" stroke-width="2" stroke-linejoin="round"/>
</svg>
