<svg width="50" height="30" viewBox="0 0 79 52" fill="none" xmlns="http://www.w3.org/2000/svg">
<path d="M77.6355 46.8333L77.6355 5.16667L71.2492 1M77.6355 46.8333L71.2492 51L45.704 34.3333M77.6355 46.8333L52.0903 30.1667M71.2492 1L71.2492 34.3333L58.4766 26L64.8629 21.8333L39.3177 38.5L13.7726 21.8333L20.1589 26L7.38628 34.3333L7.38628 17.6667L7.38628 0.999997M71.2492 1L39.3177 21.8333C26.8477 13.6974 19.8563 9.13592 7.38628 0.999997M64.8629 30.1667L64.8629 13.5L39.3177 30.1667L13.7726 13.5L13.7726 30.1667M0.99999 46.8333L7.38628 51L32.9315 34.3333M0.99999 46.8333L0.999991 26L0.999992 5.16666L7.38628 0.999997M0.99999 46.8333L13.7726 38.5L26.5452 30.1667" stroke="black" stroke-width="2" stroke-linejoin="round"/>
</svg>
