<?xml version="1.0" encoding="utf-8"?>
<!-- Generator: Adobe Illustrator 24.1.1, SVG Export Plug-In . SVG Version: 6.00 Build 0)  -->
<svg version="1.1" id="Layer_3" xmlns="http://www.w3.org/2000/svg" xmlns:xlink="http://www.w3.org/1999/xlink" x="0px" y="0px"
	 viewBox="0 0 430.2 361.6" style="enable-background:new 0 0 430.2 361.6;" xml:space="preserve">
<style type="text/css">
	.st0{fill:#FFFFFF;stroke:#231F20;stroke-miterlimit:10;}
	.st1{fill:#FFFFFF;}
	.st2{fill:none;stroke:#231F20;stroke-miterlimit:10;}
</style>
<g id="XMLID_2060_">
	
		<image style="overflow:visible;opacity:0.51;" width="326" height="326" xlink:href="87928980.png"  transform="matrix(1 0 0 1 15 9.65)">
	</image>
	<g>
		<g>
			<g id="XMLID_38_">
				
					<image style="overflow:visible;opacity:0.51;" width="68" height="146" xlink:href="8792898A.png"  transform="matrix(1 0 0 1 266 182.65)">
				</image>
				<g>
					<g>
						<g id="XMLID_39_">
							<g>
								<path class="st0" d="M271.2,192.2v122.7c0,2.6,2,4.8,4.4,4.8h44.7c2.4,0,4.4-2.1,4.4-4.8v-97.5c0-1.8-0.9-3.4-2.4-4.2
									L277.7,188C274.7,186.3,271.2,188.6,271.2,192.2z"/>
							</g>
						</g>
					</g>
				</g>
			</g>
			<g id="XMLID_37_">
				<g>
					<g>
						
							<image style="overflow:visible;opacity:0.51;" width="316" height="317" xlink:href="8792898B.png"  transform="matrix(1 0 0 1 18 11.65)">
						</image>
						<g>
							<path class="st1" d="M324.6,21.9v165.6c0,3.6-3.8,5.9-7,4.2l-43.9-23c-1.6-0.8-2.6-2.5-2.6-4.2v-50.6c0-3.6-3.8-5.9-7-4.2
								L237,123.9c-0.9,0.4-1.8,0.6-2.8,0.5l-0.5-0.2l0.4,0.2c0,0,0,0,0,0l0.4,0.2l-57.2,30.1c-2.2,1.2-4.9,1.2-7.1,0l-57.1-30.1
								l-26.7-14c-5.1-2.7-11.2,1-11.2,6.8v191.8c0,5.8-4.7,10.5-10.5,10.5H33.1c-5.8,0-10.5-4.7-10.5-10.5V25.8
								c0-5.8,6.1-9.4,11.2-6.8l139.3,73.3l0,0c0.8,0.4,1.8,0.4,2.7,0l141.9-74.6C320.8,16,324.6,18.3,324.6,21.9z"/>
							<path class="st2" d="M324.6,21.9v165.6c0,3.6-3.8,5.9-7,4.2l-43.9-23c-1.6-0.8-2.6-2.5-2.6-4.2v-50.6c0-3.6-3.8-5.9-7-4.2
								L237,123.9c-0.9,0.4-1.8,0.6-2.8,0.5l-0.5-0.2l0.4,0.2c0,0,0,0,0,0l0.4,0.2l-57.2,30.1c-2.2,1.2-4.9,1.2-7.1,0l-57.1-30.1
								l-26.7-14c-5.1-2.7-11.2,1-11.2,6.8v191.8c0,5.8-4.7,10.5-10.5,10.5H33.1c-5.8,0-10.5-4.7-10.5-10.5V25.8
								c0-5.8,6.1-9.4,11.2-6.8l139.3,73.3l0,0c0.8,0.4,1.8,0.4,2.7,0l141.9-74.6C320.8,16,324.6,18.3,324.6,21.9z"/>
						</g>
					</g>
					<g>
						
							<image style="overflow:visible;opacity:0.51;" width="16" height="14" xlink:href="8792898C.png"  transform="matrix(1 0 0 1 229 119.65)">
						</image>
						<g>
							<path class="st1" d="M234.3,124.4C234.2,124.4,234.2,124.4,234.3,124.4l-0.5-0.2L234.3,124.4z"/>
							<path class="st2" d="M234.3,124.4C234.2,124.4,234.2,124.4,234.3,124.4l-0.5-0.2L234.3,124.4z"/>
						</g>
					</g>
				</g>
			</g>
			<g id="XMLID_36_">
				<g>
					<g>
						<g>
							
								<image style="overflow:visible;opacity:0.51;" width="16" height="14" xlink:href="8792898D.png"  transform="matrix(1 0 0 1 229 119.65)">
							</image>
							<g>
								<path class="st1" d="M234.3,124.4C234.2,124.4,234.2,124.4,234.3,124.4l-0.5-0.2L234.3,124.4z"/>
								<path class="st2" d="M234.3,124.4C234.2,124.4,234.2,124.4,234.3,124.4l-0.5-0.2L234.3,124.4z"/>
							</g>
						</g>
					</g>
				</g>
			</g>
		</g>
	</g>
</g>
<g>
	<g>
		<path class="st0" d="M394.1,269.8c16.9,0,29.2,12.1,29.2,26.9s-13.7,26.9-30.6,26.9c-16.9,0-29.2-12.1-29.2-26.9
			S377.2,269.8,394.1,269.8z"/>
	</g>
</g>
</svg>
