<?xml version="1.0" encoding="utf-8"?>
<!-- Generator: Adobe Illustrator 24.2.0, SVG Export Plug-In . SVG Version: 6.00 Build 0)  -->
<svg version="1.1" xmlns="http://www.w3.org/2000/svg" xmlns:xlink="http://www.w3.org/1999/xlink" x="0px" y="0px"
	 viewBox="0 0 112.45 100.27" style="enable-background:new 0 0 112.45 100.27;" xml:space="preserve">
<style type="text/css">
	.st0{fill:#424241;}
	.st1{opacity:0.5;fill:#424241;}
	.st2{opacity:0.8;fill:#1D1D1B;}
	.st3{opacity:0.6;fill:#BA6F15;}
	.st4{opacity:0.6;fill:#1D1D1B;}
	.st5{fill:#FAD6BE;}
	.st6{fill:#EFC2A7;}
	.st7{fill:#994737;}
	.st8{display:none;opacity:0.5;fill:#424241;}
	.st9{fill:#FBD0B4;}
	.st10{fill:#EDB89A;}
	.st11{fill:#FCECE3;}
	.st12{fill:#1D1D1B;}
	.st13{fill:#FFFFFF;}
	.st14{clip-path:url(#SVGID_1_);}
	.st15{fill:#220300;}
	.st16{fill:#7F4A23;}
	.st17{fill:#0A000B;}
	.st18{fill:#FFFAE2;}
	.st19{clip-path:url(#SVGID_2_);}
	.st20{fill:#8C0C00;}
	.st21{opacity:0.6;fill:#B8A997;}
</style>
<g id="BACKGROUND">
</g>
<g id="OBJECTS">
	<g>
		<g>
			<path class="st0" d="M9.51,49.05c-1.63-2.14-1.54-4.8-0.65-7.29c0.6-1.67,1.75-4,3.49-4.69c-1.68,0.21-3.51-0.43-4.04-2.08
				c-0.05-0.15,0.03-0.12,0.15-0.03c0.18,0.13,0.44,0.41,0.46,0.42c0.93,0.66,2.43-0.2,3.19-0.76c0.95-0.71,1.7-1.77,2.14-2.89
				c0.66-1.65,0.87-3.55,1.02-5.35c-0.2-1.56-0.22-3.1,0.73-4.42c1.3-1.81,2.85-3.32,4.62-4.6c3.23-2.31,7.53-3.75,11.44-3.65
				c0.44-3.53,3.19-6.31,6.11-8.09c3.92-2.4,9.46-2.22,13.84-2.1c5.1,0.14,10.12,1.65,14.77,3.78c2.76,1.26,5.48,2.59,8.36,3.55
				c1.43,0.48,2.91,0.88,4.42,0.99c1.65,0.11,2.57-0.56,3.29-1.98c0.02-0.17,0.03-0.33,0.03-0.51c0-0.09,0.13-0.1,0.13-0.01
				c0.06,1.7-0.23,3.1-1.54,4.17c-0.83,0.67-1.97,1-3.1,1.06c1.85,0.45,3.68,1.04,5.44,1.66c2.9,1.01,5.72,2.34,8.29,4.08
				c2.48,1.67,4.7,3.87,6.12,6.62c1.69,3.28,0.95,6.36,0.46,9.79c0,0.41-0.03,0.83-0.13,1.24c-0.02,0.08-0.14,0.07-0.14-0.01
				c0.09-2.05-0.62-3.57-1.66-4.93c0.76,1.49,1.18,3.2,1.33,4.91c0.17,2.04-0.26,4.1-0.28,6.14c-0.02,1.26,0.17,2.48,0.76,3.59
				c0.36,0.67,0.92,1.13,1.59,1.41c0.84,0.35,1.49,0.45,2.37,0.41c-0.18,0.01-0.54,0.33-0.71,0.41c-0.95,0.42-2.02,0.33-3,0.11
				c-0.11-0.02-0.22-0.06-0.32-0.08c0.61,0.72,1.13,1.52,1.48,2.38c1.06,2.55,0.12,5.43-0.99,7.76c-0.04,0.08-0.14,0.03-0.14-0.05
				c0.03-0.24,0.08-0.47,0.13-0.71c-0.29-1.68-0.84-3.02-1.62-4.33c0.81,1.74,1.14,3.65,0.42,5.67c-1.16,3.24-3.52,4.8-6.61,5.33
				c-0.66,0.8-1.28,1.62-1.97,2.4c-0.01,0.01-0.02,0.01-0.03,0.02c-0.01,0.35-0.02,0.71-0.02,1.07c0.01,1.08,0.44,5.09,2.54,3.93
				c0.12-0.07,0.21,0.09,0.11,0.18c-0.21,0.18-0.42,0.29-0.62,0.34c0,0.01,0,0.01-0.01,0.02c-1.15,1.26-2.94,0.06-3.72-1.31
				c0.21,1.11,0.61,2.11,1.72,2.71c0.05,0.03,0.02,0.12-0.04,0.1c-0.16-0.04-0.31-0.1-0.45-0.17c-0.02,0.02-0.03,0.03-0.05,0.03
				c-1.49,0.1-2.59-0.72-3.15-1.99c-0.12,2.29-0.98,4.35-2.53,6.03c-1.94,2.09-4.91,2.32-7.44,1.54c-0.04-0.01-0.06-0.04-0.08-0.06
				c-4.23,3.91-10.8,3.95-16.14,4.66c-4.44,0.59-8.59,0.65-12.93-0.61c-2.05-0.6-4.08-1.29-6.14-1.83
				c-1.18-0.31-2.34-0.42-3.46-0.69c-1.14-0.11-2.24-0.42-3.31-0.98c-1.1-0.57-2.43-1.67-3.17-2.88c0.07,1.39-0.32,2.84-1.2,3.7
				c-0.04,0.04-0.09,0-0.07-0.05c0.14-0.34,0.25-0.69,0.35-1.04c-0.11-2.94-1.82-4.68-4.18-6.06c-1.74-1.02-3.17-2.17-4.34-3.9
				c-0.5-0.73-0.85-1.53-1.08-2.35c-1.91-0.59-3.46-1.97-4.31-3.88c-0.68-1.52-0.91-3.97-0.16-5.62c-0.95,0.7-2.13,0.99-3.45,0.85
				c-0.05,0.01-0.11,0.02-0.17,0.03c-0.05,0.01-0.08-0.02-0.1-0.06c-0.23-0.04-0.46-0.08-0.7-0.14c-0.04-0.01-0.06-0.1,0-0.11
				c0.37-0.07,0.74-0.1,1.11-0.11c2.18-1.13,2.92-3.05,2.78-5.5C11.89,53.9,10.1,51.67,9.51,49.05z"/>
			<path class="st1" d="M39.71,9.84c2.05-3.36,5.88-4.26,9.45-4.25c4.22,0.01,8.7,1.51,12.58,3.15c0.12,0.05,0.05,0.26-0.07,0.22
				C57.95,7.78,54.4,6.62,50.5,6.54c0.22,0.07,0.45,0.16,0.67,0.25c0.64,0.28,2.22,1.41,1.28,2.3c-0.88,0.84-2.25,0.2-3.3,0.1
				c-0.17-0.02-0.89-0.16-0.55,0.21c0.11,0.13,0.22,0.26,0.27,0.43c0.12,0.4-0.24,0.58-0.52,0.67c-0.14,0.04-0.26-0.14-0.16-0.26
				c0.26-0.28-0.74-0.87-0.42-1.51c0.35-0.69,1.37-0.53,1.95-0.46c0.52,0.06,1.04,0.18,1.57,0.21c0.81,0.05-0.38-0.67-0.57-0.77
				c-1.31-0.66-2.91-0.72-4.37-0.89c-2.4,0.41-4.72,1.33-6.45,3.15C39.8,10.06,39.64,9.96,39.71,9.84z"/>
			<path class="st1" d="M10.67,42.6c-1.34,3.31-0.52,7.26,1.96,9.74c0.2,0.2,0.6-0.03,0.48-0.32c-0.99-2.36-1.35-5.11-1.16-7.67
				c0.1-1.39,0.49-2.75,1.43-3.76c0.63-0.67,2.81-1.36,2.92-2.27c-0.09-0.05-0.18-0.06-0.28-0.05c-2.4,0.09-5.25,1.02-6.7,3.19
				c-0.37,0.56-0.66,1.14-0.88,1.74c0.1-0.48,0.24-0.96,0.41-1.43c0.6-1.67,1.75-4,3.49-4.69c-1.44,0.18-2.99-0.27-3.73-1.44
				c1.04,0.32,2.26,0.27,3.27-0.18c1.69-0.76,3-2.26,3.52-4.12c0.52-1.88,1.37-3.65,1.95-5.5c0.2,2.47-0.49,4.96-1.95,6.93
				c-0.21,0.28,0.08,0.64,0.38,0.47c1.5-0.83,2.86-1.75,3.85-3.23c0.61-0.91,1-1.99,1.46-2.98c1.17-2.47,2.77-5.33,5.65-4.52
				c-2.63,2.28-3.71,5.39-5.18,8.6c-0.14,0.31,0.25,0.63,0.47,0.36c1.02-1.22,2.28-2.41,3.11-3.82c-1.03,5.8-4.61,11.02-3.88,17.15
				c0.04,0.3,0.4,0.42,0.55,0.13c0.39-0.78,0.8-1.43,1.47-1.88c-0.19,2.55-1.15,4.97-1.32,7.54c-0.16,2.43,0.2,4.75,1.06,7
				c0.12,0.32,0.59,0.26,0.57-0.11c-0.11-2.82-0.16-5.62,0.55-8.36c0.63-2.41,1.31-4.86,1.44-7.36c0.22-4.27,0.52-8.13,2.68-11.66
				c-0.95,4.34-0.56,8.52,0.57,12.9c0.09,0.35,0.59,0.24,0.57-0.11c-0.11-2.94-0.38-6.2,0.33-9.08c0.56-2.28,1.62-4.39,1.74-6.79
				c0.19-3.66-1.62-6.05-4.33-7.99c0.9-1.02,3.52-0.78,3.57-2.45c0.03-0.85-1.22-1.57-1.79-1.86c-0.54-0.28-1.14-0.37-1.75-0.39
				c1.62-0.43,3.28-0.65,4.88-0.61c0.44-3.53,3.19-6.31,6.11-8.09c3.92-2.4,9.46-2.22,13.84-2.1c1.29,0.04,2.58,0.16,3.86,0.36
				c-1-0.09-2-0.19-3-0.21c-2.14-0.05-4.22,0.2-6.33,0.56c-3.14,0.54-6.85,1.19-9.26,3.6c-2.16,2.16-3.22,5.11-3.02,8.25
				c0.02,0.35,0.49,0.4,0.58,0.06c0.61-2.53,3.11-3.65,5.4-3.4c-2.92,2-4.64,5.3-3.4,9.03c0.09,0.28,0.51,0.29,0.57-0.02
				c0.83-5.24,6.59-2.22,9.09-0.18c3.01,2.45,5.39,5.79,6.78,9.53c0.23,0.67,0.44,1.33,0.64,1.99c0.11,0.38,0.66,0.2,0.56-0.19
				c-0.19-0.73-0.43-1.45-0.69-2.16c-1.8-5.21-4.6-10.49-9.15-13.25c3.99,1.04,7.39,3.55,9.56,7.44c2.46,4.4,3.65,9.45,7.71,12.63
				c0.31,0.24,0.65-0.15,0.4-0.46c-3.77-4.61-4.06-11.11-6.8-16.24c1.02,1.03,1.97,2.11,2.61,3.39c1.33,2.64,2.25,5.46,3.91,7.91
				c2.59,3.83,6.11,7.53,10.6,8.55c0.32,0.07,0.5-0.41,0.2-0.58c-4.4-2.55-7.66-7.24-9.24-12.26c6.37,3.82,12.77,9.35,15.73,16.6
				c0.15,0.36,0.7,0.18,0.56-0.19c-2.17-5.69-5.75-11.39-10.85-14.55c2.3,0.45,4.48,1.52,6.28,3.12c2.21,1.95,3.21,4.44,4.7,6.95
				c2.61,4.41,6.52,8.1,5.54,13.8c-0.07,0.4,0.46,0.52,0.57,0.14c2.45-8.58-4.5-14.59-7.76-21.67c1.74,1.7,3.81,2.6,6.24,3.23
				c2.5,0.66,4.78,1.23,6.73,3.4c1.68,1.86,2.24,4.89,2.24,4.89s-0.04-2.88-1.45-5.16c-1.19-1.93-3.3-3.53-5.31-4.38
				c-2.11-0.89-3.94-1.68-5.14-3.88c-0.75-1.38-1.18-2.87-1.37-4.41c0.83,2.23,2.04,4.28,4.22,5.26c0.25,0.11,0.57-0.17,0.39-0.44
				c-0.82-1.23-1.28-2.5-1.56-3.84c1.39,3.06,2.56,5.06,5.89,5.43c0.36,0.04,1.89-0.12,1.51-0.21c-5.13-1.25-4.19-7.96-7.57-10.82
				c5.85,1.14,14.32,5.06,15.27,11.96c0.05,0.39,0.04-1.28,0.03-1.69c-0.03-2.54-0.67-4.82-1.77-6.83c0.57,0.74,1.09,1.52,1.52,2.37
				c1.69,3.28,0.95,6.36,0.46,9.79c0,0.41-0.03,0.83-0.13,1.24c-0.02,0.08-0.14,0.07-0.14-0.01c0.09-2.05-0.62-3.57-1.66-4.93
				c0.76,1.49,1.18,3.2,1.33,4.91c0.17,2.04-0.26,4.1-0.28,6.14c-0.02,1.26,0.17,2.48,0.76,3.59c0.36,0.67,0.92,1.13,1.59,1.41
				c0.84,0.35,1.49,0.45,2.37,0.41c-0.18,0.01-0.54,0.33-0.71,0.41c-0.95,0.42-2.02,0.33-3,0.11c-0.11-0.02-0.22-0.06-0.32-0.08
				c0.61,0.72,1.13,1.52,1.48,2.38c1.06,2.55,0.12,5.43-0.99,7.76c-0.04,0.08-0.14,0.03-0.14-0.05c0.03-0.24,0.08-0.47,0.13-0.71
				c-0.29-1.68-0.84-3.02-1.62-4.33c0.81,1.74,1.14,3.65,0.42,5.67c-1.16,3.24-3.52,4.8-6.61,5.33c-0.66,0.8-1.28,1.62-1.97,2.4
				c-0.01,0.01-0.02,0.01-0.03,0.02c-0.01,0.35-0.02,0.71-0.02,1.07c0.01,1.08,0.44,5.09,2.54,3.93c0.12-0.07,0.21,0.09,0.11,0.18
				c-0.21,0.18-0.42,0.29-0.62,0.34c0,0.01,0,0.01-0.01,0.02c-1.15,1.26-2.94,0.06-3.72-1.31c0.21,1.11,0.61,2.11,1.72,2.71
				c0.05,0.03,0.02,0.12-0.04,0.1c-0.16-0.04-0.31-0.1-0.45-0.17c-0.02,0.02-0.03,0.03-0.05,0.03c-1.49,0.1-2.59-0.72-3.15-1.99
				c-0.12,2.29-0.98,4.35-2.53,6.03c-1.94,2.09-4.91,2.32-7.44,1.54c-0.04-0.01-0.06-0.04-0.08-0.06
				c-4.23,3.91-10.8,3.95-16.14,4.66c-4.44,0.59-8.59,0.65-12.93-0.61c-2.05-0.6-4.08-1.29-6.14-1.83
				c-1.18-0.31-2.34-0.42-3.46-0.69c-1.14-0.11-2.24-0.42-3.31-0.98c-1.1-0.57-2.43-1.67-3.17-2.88c0.07,1.39-0.32,2.84-1.2,3.7
				c-0.04,0.04-0.09,0-0.07-0.05c0.14-0.34,0.25-0.69,0.35-1.04c-0.11-2.94-1.82-4.68-4.18-6.06c-1.74-1.02-3.17-2.17-4.34-3.9
				c-0.5-0.73-0.85-1.53-1.08-2.35c-1.91-0.59-3.46-1.97-4.31-3.88c-0.68-1.52-0.91-3.97-0.16-5.62c-0.92,0.67-2.05,0.96-3.32,0.86
				c0.24-0.08,0.49-0.18,0.71-0.31c1.41-0.4,2.63-1.28,3.39-3.07c1.93-4.56,0.3-9.61,1.61-14.31c0.08-0.28-0.2-0.42-0.39-0.35
				c-0.07-0.03-0.16-0.03-0.24,0.02c-3.26,1.87-2.33,6.62-2.17,9.81c0.06,1.11,0.06,2.33-0.15,3.48c0.03-0.37,0.04-0.76,0.02-1.17
				c-2.82-0.33-4.61-2.56-5.2-5.18C9.25,48.71,9.04,48.36,8.87,48C8.65,45.81,8.9,43.6,10.67,42.6z M16.06,60.89
				c-0.3,2.49,0.44,4.48,2.04,6.29c0.21,0.23,0.58-0.04,0.48-0.33c-0.8-2.35-0.81-5.06,0.2-7.3c0.42-0.66,0.92-1.3,1.3-1.99
				c0.01-0.01,0.02-0.02,0.03-0.03c0.05-0.05,0.07-0.11,0.08-0.17c0.25-0.5,0.42-1.04,0.43-1.63c0-0.21-0.16-0.3-0.32-0.28
				c-0.07-1.11-0.24-2.18-0.83-3.15c-0.14-0.24-0.46-0.15-0.53,0.1C18.09,55.21,16.42,57.92,16.06,60.89z"/>
			<path class="st2" d="M25.14,75.01c-1.74-1.02-3.17-2.17-4.34-3.9c-0.5-0.73-0.85-1.53-1.08-2.35c-0.34-0.1-0.65-0.24-0.97-0.39
				c-0.08-0.44-0.14-0.88-0.18-1.32c0.02-0.06,0.03-0.13,0-0.2c-0.01-0.02-0.01-0.05-0.02-0.07c-0.16-2.35,0.27-4.62,1.96-6.3
				c-0.5,3.95-0.63,7.62,1.77,11.03c0.22,0.32,0.68,0.01,0.5-0.34c-2-3.63-0.19-7.62-0.69-11.51c-0.46-3.51-2.16-6.9-0.44-10.16
				c0.01,1.41,0.16,2.77,0.42,4.08c0.16,1.36,0.48,2.68,0.98,3.99c0.06,0.16,0.2,0.22,0.33,0.2c0.69,1.57,1.58,3.08,2.67,4.52
				c0.2,0.26,0.63,0.09,0.53-0.26c-0.84-2.87-1.3-5.92-1.4-8.92c-0.09-2.8-0.08-6.22,1.51-8.62c1.73,4.61,3.11,9.38,5.2,13.84
				c1.09,2.31,2.32,4.59,3.95,6.53c0.86,1.02,1.9,2.37,3.28,2.51c2.22,0.23,3.08-3.35,3.47-5.02c0.45-1.92,0.62-3.91,0.92-5.86
				c0.88-1.48,1.92-2.87,2.8-4.25c1.81-2.82,3.54-5.77,5.78-8.24c2.56-2.83,5.89-5.22,9.48-6.75c0.11,0.09,0.22,0.19,0.33,0.28
				c0.31,0.24,0.65-0.15,0.4-0.46c-0.03-0.03-0.05-0.07-0.07-0.1c0.96-0.38,1.93-0.69,2.92-0.94c2.1,2.2,4.59,3.98,7.48,4.64
				c0.32,0.07,0.5-0.41,0.2-0.58c-1.97-1.14-3.7-2.71-5.16-4.54c0.51-0.06,1.02-0.11,1.53-0.14c1.5-0.07,3,0.07,4.47,0.4
				c2.36,2.54,4.35,5.41,5.65,8.62c0.15,0.36,0.7,0.18,0.56-0.19c-1.03-2.69-2.37-5.37-4.03-7.8c1.07,0.38,2.11,0.86,3.1,1.44
				c0.34,0.62,0.68,1.24,1.05,1.88c2.61,4.41,6.52,8.1,5.54,13.8c-0.07,0.4,0.46,0.52,0.57,0.14c1.15-4.02,0.23-7.48-1.4-10.75
				c0.17,0.23,0.35,0.46,0.51,0.7c1.65,2.4,2.81,5.17,2.78,8.19c-0.02,2.47-0.58,6.08-3.03,7.13c-0.19,0.08-0.25,0.28-0.16,0.47
				c0.93,1.99,1.31,3.93,0.79,6.12c-0.07,0.29,0.32,0.53,0.5,0.28c0.98-1.36,2.06-2.78,2.46-4.38c0.19,3.11-1.39,6.35-0.12,9.44
				c0.14,0.33,0.54,0.24,0.57-0.11c0.1-1.24-0.03-2.61,0.35-3.8c0.47-1.51,1.53-2.45,2.68-3.37c0.9-0.71,1.74-1.43,2.32-2.36
				c-0.08,0.92-0.28,1.81-0.84,2.56c-0.23,0.31,0.18,0.73,0.43,0.42c1.72-2.1,3.39-4.69,3.46-7.58c0.06-2.2-0.68-4.08-1.84-5.74
				c2.57,2.22,3.75,5.39,3.34,9.14c-0.04,0.01-0.09-0.03-0.08-0.09c0.03-0.24,0.08-0.47,0.13-0.71c-0.29-1.68-0.84-3.02-1.62-4.33
				c0.81,1.74,1.14,3.65,0.42,5.67c-1.16,3.24-3.52,4.8-6.61,5.33c-0.66,0.8-1.28,1.62-1.97,2.4c-0.01,0.01-0.02,0.01-0.03,0.02
				c-0.01,0.35-0.02,0.71-0.02,1.07c0.01,1.08,0.44,5.09,2.54,3.93c0.12-0.07,0.21,0.09,0.11,0.18c-0.21,0.18-0.42,0.29-0.62,0.34
				c0,0.01,0,0.01-0.01,0.02c-1.15,1.26-2.94,0.06-3.72-1.31c0.21,1.11,0.61,2.11,1.72,2.71c0.05,0.03,0.02,0.12-0.04,0.1
				c-0.16-0.04-0.31-0.1-0.45-0.17c-0.02,0.02-0.03,0.03-0.05,0.03c-1.49,0.1-2.59-0.72-3.15-1.99c-0.12,2.29-0.98,4.35-2.53,6.03
				c-1.94,2.09-4.91,2.32-7.44,1.54c-0.04-0.01-0.06-0.04-0.08-0.06c-4.23,3.91-10.8,3.95-16.14,4.66
				c-4.44,0.59-8.59,0.65-12.93-0.61c-2.05-0.6-4.08-1.29-6.14-1.83c-1.18-0.31-2.34-0.42-3.46-0.69c-1.14-0.11-2.24-0.42-3.31-0.98
				c-1.1-0.57-2.43-1.67-3.17-2.88c0.07,1.39-0.32,2.84-1.2,3.7c-0.04,0.04-0.09,0-0.07-0.05c0.14-0.34,0.25-0.69,0.35-1.04
				C29.21,78.13,27.5,76.4,25.14,75.01z"/>
			<path class="st3" d="M77.72,25.51c-1.12-0.59-2.42-0.79-3.84-0.86c-1.58-0.08-3.3-0.14-4.73-0.97c-0.57-0.33-1.08-0.72-1.56-1.16
				c2.12-0.09,4.36-0.15,6.4,0.53C75.49,23.56,76.71,24.4,77.72,25.51z"/>
			<path class="st3" d="M59.63,19.02c1.25,0.06,2.28-0.48,3.28-1.12c-1.09,1.02-2.38,1.73-3.91,1.68c-1.98-0.07-3.8-0.85-5.29-2.22
				c-1.35-1.24-2.55-2.52-3.97-3.38c4.36,1.34,9.75,4.84,12.22,0.9c-0.31,1.51-1.07,2.79-2.51,3.57C59.17,18.6,59.37,19,59.63,19.02
				z"/>
			<path class="st4" d="M9.51,49.05c-1.63-2.14-1.54-4.8-0.65-7.29c0.6-1.67,1.75-4,3.49-4.69c-1.68,0.21-3.51-0.43-4.04-2.08
				c-0.05-0.15,0.03-0.12,0.15-0.03c0.18,0.13,0.44,0.41,0.46,0.42c0.93,0.66,2.43-0.2,3.19-0.76c0.95-0.71,1.7-1.77,2.14-2.89
				c0.66-1.65,0.87-3.55,1.02-5.35c-0.2-1.56-0.22-3.1,0.73-4.42c1.3-1.81,2.85-3.32,4.62-4.6c3.23-2.31,7.53-3.75,11.44-3.65
				c0.44-3.53,3.19-6.31,6.11-8.09c3.92-2.4,9.46-2.22,13.84-2.1c5.1,0.14,10.12,1.65,14.77,3.78c2.76,1.26,5.48,2.59,8.36,3.55
				c1.43,0.48,2.91,0.88,4.42,0.99c1.65,0.11,2.57-0.56,3.29-1.98c0.02-0.17,0.03-0.33,0.03-0.51c0-0.09,0.13-0.1,0.13-0.01
				c0.06,1.7-0.23,3.1-1.54,4.17c-0.83,0.67-1.97,1-3.1,1.06c1.85,0.45,3.68,1.04,5.44,1.66c2.9,1.01,5.72,2.34,8.29,4.08
				c2.48,1.67,4.7,3.87,6.12,6.62c1.69,3.28,0.95,6.36,0.46,9.79c0,0.41-0.03,0.83-0.13,1.24c-0.02,0.08-0.14,0.07-0.14-0.01
				c0.09-2.05-0.62-3.57-1.66-4.93c0.76,1.49,1.18,3.2,1.33,4.91c0.17,2.04-0.26,4.1-0.28,6.14c-0.02,1.26,0.17,2.48,0.76,3.59
				c0.36,0.67,0.92,1.13,1.59,1.41c0.84,0.35,1.49,0.45,2.37,0.41c-0.18,0.01-0.54,0.33-0.71,0.41c-0.95,0.42-2.02,0.33-3,0.11
				c-0.11-0.02-0.22-0.06-0.32-0.08c0.61,0.72,1.13,1.52,1.48,2.38c1.06,2.55,0.12,5.43-0.99,7.76c-0.04,0.08-0.14,0.03-0.14-0.05
				c0.03-0.24,0.08-0.47,0.13-0.71c-0.29-1.68-0.84-3.02-1.62-4.33c0.81,1.74,1.14,3.65,0.42,5.67c-1.16,3.24-3.52,4.8-6.61,5.33
				c-0.66,0.8-1.28,1.62-1.97,2.4c-0.01,0.01-0.02,0.01-0.03,0.02c-0.01,0.35-0.02,0.71-0.02,1.07c0.01,1.08,0.44,5.09,2.54,3.93
				c0.12-0.07,0.21,0.09,0.11,0.18c-0.21,0.18-0.42,0.29-0.62,0.34c0,0.01,0,0.01-0.01,0.02c-1.15,1.26-2.94,0.06-3.72-1.31
				c0.21,1.11,0.61,2.11,1.72,2.71c0.05,0.03,0.02,0.12-0.04,0.1c-0.16-0.04-0.31-0.1-0.45-0.17c-0.02,0.02-0.03,0.03-0.05,0.03
				c-1.49,0.1-2.59-0.72-3.15-1.99c-0.12,2.29-0.98,4.35-2.53,6.03c-1.94,2.09-4.91,2.32-7.44,1.54c-0.04-0.01-0.06-0.04-0.08-0.06
				c-4.23,3.91-10.8,3.95-16.14,4.66c-4.44,0.59-8.59,0.65-12.93-0.61c-2.05-0.6-4.08-1.29-6.14-1.83
				c-1.18-0.31-2.34-0.42-3.46-0.69c-1.14-0.11-2.24-0.42-3.31-0.98c-1.1-0.57-2.43-1.67-3.17-2.88c0.07,1.39-0.32,2.84-1.2,3.7
				c-0.04,0.04-0.09,0-0.07-0.05c0.14-0.34,0.25-0.69,0.35-1.04c-0.11-2.94-1.82-4.68-4.18-6.06c-1.74-1.02-3.17-2.17-4.34-3.9
				c-0.5-0.73-0.85-1.53-1.08-2.35c-1.91-0.59-3.46-1.97-4.31-3.88c-0.68-1.52-0.91-3.97-0.16-5.62c-0.95,0.7-2.13,0.99-3.45,0.85
				c-0.05,0.01-0.11,0.02-0.17,0.03c-0.05,0.01-0.08-0.02-0.1-0.06c-0.23-0.04-0.46-0.08-0.7-0.14c-0.04-0.01-0.06-0.1,0-0.11
				c0.37-0.07,0.74-0.1,1.11-0.11c2.18-1.13,2.92-3.05,2.78-5.5C11.89,53.9,10.1,51.67,9.51,49.05z M15.17,53.02
				c0.25,1.04,0.22,2.14,0.11,3.19c-0.16,1.4-1.02,2.74-2.19,3.44c0.32-0.04,0.64-0.1,0.97-0.21c1.5-0.5,2.49-1.86,3.01-3.38
				c0.04-0.1,0.19-0.07,0.17,0.04c-0.29,1.1-0.77,1.98-1.38,2.63c-0.55,2.01-0.77,3.94-0.04,5.94c0.68,1.85,2.24,2.92,3.83,3.78
				c-0.8-3.26,0.16-7.02,1.55-9.93c0.04-0.08,0.16-0.03,0.14,0.06c-0.63,2.38-1.43,4.49-1.52,7c-0.12,2.95,1.24,5.5,3.29,7.39
				c1.64,1.51,3.77,2.13,5.27,3.87c0.71,0.81,1.12,1.76,1.24,2.77c0.13-1.28,0.31-2.36-0.34-3.62c-0.08-0.16-0.29-0.56-0.15-0.42
				c0.49,0.5,0.82,1.19,0.99,1.95c1.03,1.17,1.87,2.37,3.15,3.27c0.38,0.26,0.77,0.48,1.18,0.65c-0.01-0.06,0.05-0.11,0.11-0.09
				c1.83,0.76,3.88,0.56,5.79,0.97c1.91,0.42,3.77,1.05,5.64,1.62c4.08,1.23,7.97,1.37,12.16,0.89c6.08-0.71,14.26-0.71,18.7-5.91
				c0.07-0.08,0.18,0.03,0.11,0.11c-0.38,0.54-0.81,1.01-1.25,1.46c2.54,0.19,4.73,0.28,6.81-1.57c1.61-1.43,2.54-3.73,2.81-5.92
				c-0.11-0.3-0.19-0.62-0.25-0.96c-0.02-0.12,0.16-0.15,0.19-0.03c0.39,1.5,1.61,2.65,3.01,3.02c-1.35-0.97-1.57-3.17-1.42-4.85
				c0.01-0.12,0.21-0.13,0.23-0.01c0.08,0.46,0.13,0.93,0.19,1.41c0.58,1.16,2.07,2.84,3.43,2.34c-0.69-0.12-1.26-0.88-1.56-1.67
				c-0.89-2.38-0.6-5.2,0.27-7.52c0.03-0.09,0.16-0.03,0.14,0.06c-0.19,1.09-0.32,2.17-0.39,3.27c1.01-2.9,3.95-4.53,5.77-6.78
				c0.02-0.03,0.07,0.01,0.05,0.04c-0.76,1.36-1.72,2.38-2.79,3.48c-0.23,0.23-0.45,0.48-0.66,0.73c1.01-0.35,2.02-0.62,2.94-1.23
				c1.22-0.8,2.08-2.12,2.66-3.48c1.21-2.84,0.09-5.84-1.39-8.25c-0.04-0.06,0.04-0.11,0.08-0.06c0.07,0.1,0.14,0.2,0.22,0.3
				c0.03-0.02,0.07-0.03,0.11,0c1.8,1.29,2.82,3.68,2.96,5.97c0.17-0.6,0.37-1.19,0.54-1.79c0.36-1.32,0.27-2.77-0.09-4.08
				c-0.45-1.61-1.56-2.74-2.74-3.78c0.01,0.01,0.02,0.01,0.04,0.01c-0.49-0.38-0.91-0.86-1.34-1.44c-0.01-0.01,0.01-0.04,0.02-0.03
				c1.48,1.1,3.14,2.08,4.9,2.15c-0.95-0.25-1.8-0.93-2.37-1.82c-1.03-1.61-0.89-3.88-0.75-5.71c0.19-2.39,0.37-4.58-0.24-6.93
				c-0.66-2.54-2.13-4.43-4.11-5.94c-0.08-0.06,0.02-0.18,0.09-0.14c0.75,0.37,1.41,0.86,1.99,1.43c1.59,1.15,3.07,2.95,3.49,4.96
				c0.08-1.21,0.22-2.4,0.28-3.62c0.1-1.84-0.49-3.65-1.31-5.24c-1.44-2.81-3.93-4.85-6.46-6.46c-5.42-3.45-12.24-5.07-18.33-6.48
				c-0.19-0.04,0.46-0.03,0.66-0.02c0.85,0.03,1.7,0.13,2.55,0.26c0.01-0.01,0.02-0.01,0.03-0.01c2.84,0.03,6.37-0.5,6.84-3.87
				c-0.63,1.37-1.03,1.89-2.74,2.13c-2.31,0.33-4.97-0.8-7.1-1.62c-2.36-0.9-4.64-2.05-6.94-3.11c-2.69-1.24-5.5-2.16-8.38-2.8
				c-4.92-1.09-10.42-1.03-15.37-0.05c-2.49,0.49-4.56,1.69-6.46,3.44c-0.98,0.9-1.84,1.94-2.53,3.12
				c-0.81,1.38-1.08,3.81-1.07,5.39c0,0.26-0.15-0.78-0.18-1.03c-0.06-0.55-0.07-1.08-0.02-1.6c-3.74,0.36-7.11,1.16-10.4,3.2
				c-1.67,1.04-3.15,2.38-4.44,3.91c-0.74,0.88-1.34,1.79-1.55,2.96c-0.13,0.74-0.08,1.53-0.15,2.29c0.05,2.27-0.28,4.53-1.27,6.58
				c-0.87,1.8-2.74,3.42-4.69,2.93c1.6,1.09,4.06,1.14,5.4-0.29c0.04-0.04,0.1,0.02,0.06,0.06c-0.43,0.59-1.11,0.99-1.86,1.22
				c0.01,0.02,0.02,0.05-0.01,0.07c-1.93,1.19-3.1,2.68-3.89,4.93c-0.33,0.95-0.52,1.95-0.6,2.96c-0.1,1.22,0.24,2.2,0.73,3.2
				c-0.18-1.71,0.12-3.49,0.97-4.97c0.06-0.09,0.18-0.02,0.14,0.08c-0.88,2.03-1.15,4.1-0.46,6.24c0.74,2.3,2.59,3.6,4.67,4.32
				c-0.01-0.07-0.01-0.13-0.02-0.2c-0.24-2.01-1.4-3.84-0.51-5.87c0.03-0.06,0.12-0.02,0.11,0.05
				C13.79,49.64,14.72,51.21,15.17,53.02z"/>
			<path class="st5" d="M23.12,63.4c0.49-2.7,3.71-4.86,5.27-2.94c-0.12-1.01-0.25-2.02-0.38-3.02c-0.81-6.11-2.05-12.26-2.36-18.43
				c-0.12-2.46,0.08-4.94,0.45-7.38c0.31-2.07,0.89-4.04,2.37-5.5c0.02-0.02,0.03-0.02,0.05-0.02c3.79-5.03,9.1-8.24,15.17-9.08
				c6.32-0.88,12.76,0.93,18.48,3.67c5.98,2.86,12.02,7.08,16.23,12.49c2.19,2.81,3.63,6.07,4.58,9.56
				c1.15,4.21,0.58,7.71-0.22,11.96c-0.45,2.39-0.88,4.81-1.29,7.24c1.46-2.29,5.09-0.45,6,2.07c1.65,4.61-4.09,10.26-8.03,10.7
				c-0.26,1.68-0.51,3.36-0.77,5.02c0.02,0.02,0.04,0.05,0.03,0.09c-0.34,5.61-5.94,8.14-9.66,11c-2.64,2.03-5.09,4.35-7.96,6.03
				c-2.69,1.57-5.9,2.05-8.91,1.5c-2.94-0.54-5.32-2.52-7.56-4.48c-1.71-1.5-3.31-3.15-4.97-4.72c-2.18-2.04-4.44-4.02-6.3-6.41
				c-1.77-2.28-2.71-4.79-3.25-7.64c-2.39,0.69-3.81-2.33-4.68-4.19c-0.63-1.34-1.65-2.66-2.13-4.05
				C22.88,65.7,22.9,64.62,23.12,63.4z"/>
			<path class="st6" d="M30,75.12c-0.15-2.28-0.43-4.55-0.76-6.81c-0.39-2.67-0.63-5.39-1.06-8.06c0.07,0.07,0.14,0.13,0.21,0.21
				c-0.12-1.01-0.25-2.02-0.38-3.02c-0.81-6.11-2.05-12.26-2.36-18.43c-0.12-2.46,0.08-4.94,0.45-7.38c0.31-2.07,0.89-4.04,2.37-5.5
				c0.02-0.02,0.03-0.02,0.05-0.02c3.79-5.03,9.1-8.24,15.17-9.08c6.32-0.88,12.76,0.93,18.48,3.67
				c5.98,2.86,12.02,7.08,16.23,12.49c2.19,2.81,3.63,6.07,4.58,9.56c1.15,4.21,0.58,7.71-0.22,11.96
				c-0.44,2.31-0.85,4.66-1.25,7.02c-0.5,1.58-0.56,3.41-0.83,4.96c-0.5,2.77-0.93,5.54-1.29,8.33c-0.24,1.58-0.48,3.16-0.72,4.72
				c0.02,0.02,0.04,0.05,0.03,0.09c-0.34,5.61-5.94,8.14-9.66,11c-2.64,2.03-5.09,4.35-7.96,6.03c-2.69,1.57-5.9,2.05-8.91,1.5
				c-2.94-0.54-5.32-2.52-7.56-4.48c-1.71-1.5-3.31-3.15-4.97-4.72c-2.18-2.04-4.44-4.02-6.3-6.41c-1.77-2.28-2.71-4.79-3.25-7.64
				C30.06,75.11,30.03,75.11,30,75.12z M31.28,56.67c0.12,1.88,0.06,3.76,0.11,5.64c0.11,3.67,0.26,7.44,0.91,11.05
				c1.15,6.44,5.04,11.03,9.48,15.32c1.98,1.91,3.91,3.95,6.04,5.47c0.03,0.04,0.07,0.08,0.12,0.11c0.03,0.02,0.07,0.03,0.11,0.05
				c2.4,1.65,5.06,2.61,8.35,1.93c5.59-1.16,10.54-4.93,14.69-9.05c1.35-1.15,2.65-2.36,3.79-3.66c0.61-0.69,1.08-1.46,1.47-2.28
				c0.51-0.98,0.88-2.01,1.17-3.07c0.08-0.04,0.14-0.11,0.17-0.24c0.68-3.13,1.08-6.31,1.32-9.51c0.24-1.94,0.49-3.87,0.76-5.8
				c0.35-2.44,1.43-5.31,0.63-7.74c-0.08-0.23-0.3-0.34-0.51-0.23c-0.79,0.43-1.33,1.27-1.96,1.95c-0.01-4.18-0.95-8.75-4.56-10.97
				c-2.43-1.5-4.96-1.44-7.65-1.87c-3.49-0.56-6.68-1.83-9.12-4.65c-0.15-0.17-0.45-0.13-0.55,0.08c-1.01,2.2-2.4,3.95-4.19,5.25
				c0.45-4.32,0.11-8.79-1.58-12.53c-1.1-2.43-2.67-3.56-5.15-3.93c-1.61-0.23-3.75-0.17-4.94,1.18c-1.66-0.42-3.68,0.91-4.78,2.25
				c-2.01,2.46-3.12,5.61-3.23,8.86c-0.15,4.31,0.97,8.76,3.08,12.55c-1.41-0.42-3.23-1.14-3.57-1.28c-0.17-0.07-0.4,0.08-0.43,0.26
				C30.98,53.47,31.17,55.04,31.28,56.67z"/>
			<path class="st6" d="M79.48,74.22c-0.02-1.67,0.29-3.33,0.8-4.91c0.54-1.66,1.27-3.44,2.69-4.47c1.57-1.15,1.84,0.34,1.99,1.11
				c0.03,0.2,0.08,0.4,0.12,0.59c0.07,0.19,0.13,0.41,0.28,0.56c1.46,1.44,1.84-1.53,1.89-3.56c0.08,0.16,0.15,0.32,0.21,0.49
				c1.64,4.58-4.01,10.18-7.94,10.69C79.5,74.55,79.49,74.39,79.48,74.22z"/>
			<path class="st6" d="M22.97,64.92c0.09,0.46,0.32,1.05,0.84,1.05c0.61,0.01,0.93-0.88,1.22-1.33c1.67-2.59,1.68,0.81,2.87,0.64
				c0.58-0.08,0.87-0.56,0.92-1.16c0.1-1.18-0.17-2.74-0.73-3.95c0.06,0.05,0.11,0.11,0.17,0.17c1.09,3.31,1.18,7.02,1.57,10.47
				c0.17,1.49,0.21,3.02,0.31,4.54c-0.02-0.09-0.03-0.17-0.05-0.26c-2.39,0.69-3.81-2.33-4.68-4.19c-0.63-1.34-1.65-2.66-2.13-4.05
				C23.06,66.2,22.96,65.57,22.97,64.92z"/>
			<path class="st7" d="M23.12,63.4c0.49-2.7,3.71-4.86,5.27-2.94c-0.12-1.01-0.25-2.02-0.38-3.02c-0.81-6.11-2.05-12.26-2.36-18.43
				c-0.12-2.46,0.08-4.94,0.45-7.38c0.31-2.07,0.89-4.04,2.37-5.5c0.02-0.02,0.03-0.02,0.05-0.02c3.79-5.03,9.1-8.24,15.17-9.08
				c6.32-0.88,12.76,0.93,18.48,3.67c5.98,2.86,12.02,7.08,16.23,12.49c2.19,2.81,3.63,6.07,4.58,9.56
				c1.15,4.21,0.58,7.71-0.22,11.96c-0.45,2.39-0.88,4.81-1.29,7.24c1.46-2.29,5.09-0.45,6,2.07c1.65,4.61-4.09,10.26-8.03,10.7
				c-0.26,1.68-0.51,3.36-0.77,5.02c0.02,0.02,0.04,0.05,0.03,0.09c-0.34,5.61-5.94,8.14-9.66,11c-2.64,2.03-5.09,4.35-7.96,6.03
				c-2.69,1.57-5.9,2.05-8.91,1.5c-2.94-0.54-5.32-2.52-7.56-4.48c-1.71-1.5-3.31-3.15-4.97-4.72c-2.18-2.04-4.44-4.02-6.3-6.41
				c-1.77-2.28-2.71-4.79-3.25-7.64c-2.39,0.69-3.81-2.33-4.68-4.19c-0.63-1.34-1.65-2.66-2.13-4.05
				C22.88,65.7,22.9,64.62,23.12,63.4z M87.15,65.71c0.14-1.71-0.83-3.16-2.18-3.97c-1.72-1.03-3.08-0.07-3.75,1.68
				c0,0-0.01,0-0.01,0.01c-0.37,2.22-0.72,4.44-1.07,6.66c0.48-1.91,1.48-3.56,2.79-5.04c1.08-1.23,1.73,0.3,2.14,1.31
				c0.03,0.06-0.06,0.11-0.09,0.05c-0.26-0.48-0.86-2-1.62-1.27c-0.6,0.58-0.98,1.48-1.42,2.2c-0.05,0.09-0.1,0.19-0.15,0.28
				c0.31,0.11,0.61,0.36,0.84,0.56c0.38,0.33,0.66,0.79,0.84,1.28c0.04,0.11-0.11,0.18-0.17,0.09c-0.24-0.38-0.51-0.71-0.84-1.01
				c-0.15-0.14-0.32-0.25-0.49-0.34c-0.13-0.08-0.28-0.1-0.41-0.15c-0.62,1.16-1.1,2.42-1.55,3.66c-0.02,0.06-0.08,0.05-0.11,0
				c-0.13,0.83-0.26,1.67-0.39,2.5C83.17,73.27,86.82,69.87,87.15,65.71z M32.72,80.9c0.86,1.31,1.73,2.61,2.71,3.79
				c1.19,1.22,2.52,2.23,3.78,3.35c1.44,1.28,2.8,2.66,4.19,4c2.42,2.33,5.53,5.24,8.93,5.88c1.27-0.13,2.56-0.05,3.83-0.14
				c1.83-0.12,3.45-0.73,5.07-1.62c2.46-1.36,4.63-3.28,6.85-5.03c1.96-1.55,4.12-2.78,6.04-4.4c1.94-1.64,3.28-3.56,4.07-5.97
				c0.54-4.61,1.3-8.64,2.05-13.3c0.25-1.54,0.5-2.88,0.74-4.11c0-0.01-0.01-0.01,0-0.02c0.01-0.08,0.03-0.15,0.05-0.23
				c0.25-1.31,0.48-2.5,0.67-3.66c0.38-2.39,0.69-4.21,1.12-6.58c1.61-8.72-1.94-17.07-8.01-22.87
				c-9.74-9.28-25.48-16.69-38.23-10.25c-3.41,1.72-6.21,4.41-8.61,7.47c-0.01,0-0.01,0-0.01,0c-0.88,1.64-1.25,3.56-1.5,5.41
				c-0.36,2.71-0.4,5.39-0.16,8.11c0.5,5.58,1.52,11.13,2.23,16.69c0.19,1.52,0.37,3.04,0.52,4.56c0.01,0.05,0.02,0.09,0.03,0.14
				c0,0.03-0.01,0.05-0.01,0.08c0.12,1.2,0.23,2.4,0.31,3.61c0.19,2.7,0.64,5.7,0.97,8.38C30.64,76.62,31.38,78.87,32.72,80.9z
				 M25.64,70.13c0.76,1.63,2.04,4.94,4.25,4.29c0.03-0.01,0.04,0,0.07,0c-0.14-0.84-0.27-1.63-0.39-2.4
				c-0.03-0.01-0.06-0.02-0.08-0.05c-0.31-0.64-0.6-1.3-0.89-1.95c-0.32-0.13-0.58-0.2-0.96-0.16c-0.35,0.03-0.71,0.05-1.06,0.08
				c-0.09,0.01-0.1-0.12-0.03-0.16c0.5-0.24,1.17-0.52,1.75-0.44c-0.19-0.44-0.37-0.87-0.57-1.31c-0.23-0.51-0.46-1.03-0.7-1.53
				c-0.49-1.03-1.68-1.01-2.58-0.21c-0.08,0.07,0.31-0.39,0.36-0.47c1.79-2.61,3.73,1.89,4.53,4.57c-0.13-1.07-0.24-2.15-0.32-3.33
				c-0.12-1.81-0.3-3.61-0.51-5.42c-0.67-1.34-1.7-1.94-3.18-0.99c-1.39,0.91-2.03,2.51-2.12,4.18
				C23.13,66.73,24.87,68.48,25.64,70.13z"/>
			<path class="st0" d="M20.86,49.54c-0.87-7.47-0.33-15.23,2.28-22.25c2.91-7.84,8.74-13.2,16.07-16.14
				c7.13-2.86,14.72-1.9,21.69,1c6.86,2.86,13.54,7.69,18.06,13.93c3.69,5.12,5.91,11.6,7.17,17.86c0.01,0.03,0,0.06-0.02,0.09
				c1.02,2.44,1.47,5.14,1.32,7.83c-0.1,1.77-0.48,3.67-1.5,5.11c-1.15,1.63-2.66,2.91-3.81,4.55c-0.06,0.09-0.19-0.02-0.14-0.11
				c0.06-0.14,0.13-0.28,0.2-0.41c-0.01-0.02-0.01-0.04,0-0.07c1.55-4.36,1.05-8.92-0.9-13.02c0.06,2.16-0.28,4.29-1.15,6.24
				c-0.03,0.05-0.1,0.02-0.09-0.04c0.04-0.27,0.08-0.54,0.11-0.8c-0.33-4.09-1.81-8.33-5.36-10.4c-0.03-0.02-0.05-0.04-0.07-0.07
				c-1.88,0.06-3.92-0.67-5.5-1.46c-5.37,1.57-11.07-1.79-13.99-6.62c-0.06,0.54-0.15,1.07-0.26,1.6c-0.31,1.49-0.8,3.4-1.78,4.56
				c-0.12,0.15-0.34-0.03-0.26-0.2c0.11-0.24,0.22-0.49,0.33-0.74c-0.02-0.02-0.02-0.04-0.02-0.07c0.75-5.26-2.38-9.81-5.68-13.48
				c-1.38-0.17-2.75-0.37-4.14-0.34c-1.79,0.04-2.91,0.75-4.24,1.8c0.01,0.09-0.06,0.19-0.15,0.21c-0.01,0-0.01,0.01-0.02,0.01
				c-0.28,0.02-0.54,0.06-0.81,0.11c-0.01,0.07-0.07,0.13-0.14,0.13c-0.14,0.01-0.28,0.01-0.42,0c-3.36,0.93-5.22,4.1-6.61,7.45
				c-0.01,0.03-0.03,0.03-0.04,0.05c-0.22,2.32-0.44,4.65-0.22,6.98c0.63,7,4.06,9.3,3.86,9.2c-2.71-1.29-4.94-3.74-6.44-6.5
				c0.47,1.86,0.74,3.81,0.85,5.69c0.15,2.34-0.03,5.41-1.15,7.48c-0.04,0.07-0.13,0.08-0.18,0.04c-0.06,0.28-0.12,0.57-0.18,0.86
				c-0.02,0.1-0.16,0.08-0.17-0.02c-0.1-1.61,0.14-2.99-0.27-4.6c-0.25-0.98-0.59-1.92-0.82-2.9c-0.24,4.12-0.05,8.17,3.45,10.96
				c0.02,0.02,0.02,0.03,0.03,0.05c0.41,0.04,0.84,0.04,1.27-0.02c0.1-0.01,0.11,0.14,0.03,0.17c-3.55,1.42-6.67-1.98-8.38-4.89
				C21.04,55.6,20.48,52.58,20.86,49.54z"/>
			<path class="st1" d="M61.97,14.87c-0.31,1.51-1.07,2.79-2.51,3.57c-0.29,0.15-0.67,0.25-0.41,0.26c1.25,0.07,2.85-0.16,3.86-0.8
				c-1.09,1.02-2.38,1.73-3.91,1.68c-1.98-0.07-3.8-0.85-5.29-2.22c-1.35-1.24-2.55-2.52-3.97-3.38
				C54.1,15.31,59.49,18.81,61.97,14.87z"/>
			<path class="st1" d="M68.06,21.98c2.12-0.08,4.35-0.15,6.4,0.53c1.5,0.5,2.72,1.34,3.73,2.46c-1.13-0.59-2.42-0.79-3.84-0.87
				c-1.58-0.08-3.3-0.14-4.73-0.97C69.05,22.81,68.54,22.42,68.06,21.98z"/>
			<path class="st1" d="M21.83,31.56c0.08,0,0.15-0.02,0.21-0.1c1.02-1.22,2.28-2.41,3.11-3.82c-1.03,5.8-4.61,11.02-3.88,17.15
				c0.04,0.3,0.4,0.42,0.55,0.13c0.39-0.78,0.8-1.43,1.47-1.88c-0.19,2.55-1.15,4.97-1.32,7.54c-0.16,2.43,0.2,4.75,1.06,7
				c0.12,0.32,0.59,0.26,0.57-0.11c-0.11-2.82-0.16-5.62,0.55-8.36c0.63-2.41,1.31-4.86,1.44-7.36c0.22-4.27,0.52-8.13,2.68-11.66
				c-0.95,4.34-0.56,8.52,0.57,12.9c0.09,0.35,0.59,0.24,0.57-0.11c-0.11-2.94-0.38-6.2,0.33-9.08c0.56-2.28,1.62-4.39,1.74-6.79
				c0.18-3.43-1.39-5.73-3.81-7.61c0.34-0.41,0.69-0.8,1.05-1.19c0.97-0.32,1.97-0.63,2-1.65c0-0.09-0.02-0.17-0.04-0.25
				c1.15-1,2.38-1.91,3.68-2.71c-0.12,0.8-0.17,1.62-0.11,2.47c0.02,0.35,0.49,0.4,0.58,0.06c0.61-2.53,3.11-3.65,5.4-3.4
				c-2.92,2-4.64,5.3-3.4,9.03c0.09,0.28,0.51,0.29,0.57-0.02c0.83-5.24,6.59-2.22,9.09-0.18c3.58,2.92,6.58,7.79,7.93,12.33
				c0.11,0.39,0.08-0.59,0.05-0.99c-0.31-3.91-1.59-5.75-3.28-8.53c-0.44-0.72-1.69-2.46-3.25-4.15c-0.81-0.87-2.16-2.43-3.32-2.73
				c3.99,1.04,7.39,3.55,9.56,7.44c2.46,4.4,3.65,9.45,7.71,12.63c0.31,0.24-0.44-0.85-0.69-1.15c-3.77-4.61-2.98-10.42-5.71-15.55
				c1.02,1.03,1.97,2.11,2.61,3.39c1.33,2.64,2.25,5.46,3.91,7.91c2.59,3.83,4.66,6.54,9.14,7.56c0.33,0.08,1.95,0.58,1.65,0.42
				c-4.4-2.55-7.66-7.24-9.24-12.26c6.37,3.82,12.77,9.35,15.73,16.6c0.15,0.36-0.51-2.36-0.65-2.73
				c-2.17-5.69-4.54-8.85-9.64-12.01c2.3,0.45,4.48,1.52,6.28,3.12c2.21,1.95,3.21,4.44,4.7,6.95c2.61,4.41,6.77,9.57,5.78,15.28
				c-0.07,0.4,0.22-0.95,0.33-1.33c2.45-8.58-4.5-14.59-7.76-21.67c1.5,1.47,3.26,2.34,5.27,2.96c1.1,2.92,1.92,5.95,2.52,8.93
				c0.01,0.03,0,0.06-0.02,0.09c1.02,2.44,1.47,5.14,1.32,7.83c-0.1,1.77-0.48,3.67-1.5,5.11c-1.15,1.63-2.66,2.91-3.81,4.55
				c-0.06,0.09-0.19-0.02-0.14-0.11c0.06-0.14,0.13-0.28,0.2-0.41c-0.01-0.02-0.01-0.04,0-0.07c1.55-4.36,1.05-8.92-0.9-13.02
				c0.06,2.16-0.28,4.29-1.15,6.24c-0.03,0.05-0.1,0.02-0.09-0.04c0.04-0.27,0.08-0.54,0.11-0.8c-0.33-4.09-1.81-8.33-5.36-10.4
				c-0.03-0.02-0.05-0.04-0.07-0.07c-1.88,0.06-3.92-0.67-5.5-1.46c-5.37,1.57-11.07-1.79-13.99-6.62c-0.06,0.54-0.15,1.07-0.26,1.6
				c-0.31,1.49-0.8,3.4-1.78,4.56c-0.12,0.15-0.34-0.03-0.26-0.2c0.11-0.24,0.22-0.49,0.33-0.74c-0.02-0.02-0.02-0.04-0.02-0.07
				c0.75-5.26-2.38-9.81-5.68-13.48c-1.38-0.17-2.75-0.37-4.14-0.34c-1.79,0.04-2.91,0.75-4.24,1.8c0.01,0.09-0.06,0.19-0.15,0.21
				c-0.01,0-0.01,0.01-0.02,0.01c-0.28,0.02-0.54,0.06-0.81,0.11c-0.01,0.07-0.07,0.13-0.14,0.13c-0.14,0.01-0.28,0.01-0.42,0
				c-3.36,0.93-5.22,4.1-6.61,7.45c-0.01,0.03-0.03,0.03-0.04,0.05c-0.22,2.32-0.44,4.65-0.22,6.98c0.63,7,4.06,9.3,3.86,9.2
				c-2.71-1.29-4.94-3.74-6.44-6.5c0.47,1.86,0.74,3.81,0.85,5.69c0.15,2.34-0.03,5.41-1.15,7.48c-0.04,0.07-0.13,0.08-0.18,0.04
				c-0.06,0.28-0.12,0.57-0.18,0.86c-0.02,0.1-0.16,0.08-0.17-0.02c-0.1-1.61,0.14-2.99-0.27-4.6c-0.25-0.98-0.59-1.92-0.82-2.9
				c-0.24,4.12-0.05,8.17,3.45,10.96c0.02,0.02,0.02,0.03,0.03,0.05c0.41,0.04,0.84,0.04,1.27-0.02c0.1-0.01,0.11,0.14,0.03,0.17
				c-3.55,1.42-6.67-1.98-8.38-4.89c-1.64-2.78-2.19-5.8-1.81-8.84C20.17,43.56,20.38,37.39,21.83,31.56z"/>
			<path class="st1" d="M31.13,35c-0.2-2.57-0.68-8.49,2.73-9.04c0.15-0.03,0.3-0.15,0.28-0.32c-0.26-2.41-1.07-4.69-1.21-7.08
				c1.3,3.1,2.57,6.45,5.17,8.54c0.21,0.17,0.48,0.04,0.49-0.24c0.1-1.56,0.26-3.72,1.33-4.93c1.16-1.31,2.77-0.76,4.02,0.13
				c2.47,1.77,4.83,4.43,6.08,7.42c-0.77-1.07-1.61-2.08-2.47-3.04c-1.38-0.17-2.75-0.37-4.14-0.34c-1.79,0.04-2.91,0.75-4.24,1.8
				c0.01,0.09-0.06,0.19-0.15,0.21c-0.01,0-0.01,0.01-0.02,0.01c-0.28,0.02-0.54,0.06-0.81,0.11c-0.01,0.07-0.07,0.13-0.14,0.13
				c-0.14,0.01-0.28,0.01-0.42,0c-3.25,0.9-5.1,3.9-6.47,7.13C31.16,35.32,31.14,35.15,31.13,35z"/>
			<path class="st4" d="M22.04,45.2c0.04-0.09,0.18-0.03,0.16,0.06c-0.58,2.34-1.27,4.53-1.04,6.99c0.16,1.76,0.89,3.57,1.66,5.11
				c1.34,2.66,3.51,5.09,6.28,5.64c-1.94-1.29-3.1-3.94-3.42-6.25c-0.49-3.61,0.36-7.21,0.7-10.79c0.01-0.12,0.19-0.09,0.2,0.02
				c0.02,1.54-0.11,3.15-0.22,4.77c0,0.01,0.02,0.02,0.02,0.03c0.54,1.48,1.06,2.99,1.42,4.53c0.2,0.84,0.18,1.63,0.08,2.42
				c0.5-2.12,0.67-4.3,0.58-6.49c-0.1-2.41-0.72-4.75-0.96-7.14c-0.05-0.12-0.1-0.24-0.16-0.36c-1.5-3.69-1.46-7.37,0.14-11
				c0.02-0.05,0.09-0.01,0.07,0.04c-1.39,3.71-1.11,7.61,0.48,11.19c0.7,1.59,1.7,3.03,2.76,4.36c0.54,0.68,1.16,1.24,1.81,1.76
				c-3.59-4.95-2.4-11.76-1.73-17.61c0.21-1.87,0.61-4.94,2.25-6.06c1.05-0.71,2.46-0.4,3.75,0.16c-2.78-1.85-4.54-5.69-4.72-9.03
				c0-0.08,0.11-0.1,0.13-0.02c1.17,3.69,2.73,7.16,5.78,9.54c0.04,0.03,0.03,0.07,0.01,0.1c0.21,0.11,0.41,0.23,0.6,0.34
				c-0.56-1.96-0.6-5.83,1.41-6.77c1.74-0.81,4.1,1.44,5.29,2.48c4.42,3.84,9.13,9.6,8.18,16.02c1.03-2.73,1.52-5.73,0.92-8.61
				c-0.65-3.1-2.47-5.76-3.93-8.47c-0.04-0.08,0.06-0.15,0.11-0.08c1.89,2.82,3.88,5.79,4.5,9.25c0.16,0.91,0.19,1.83,0.13,2.75
				c2.9,4.88,8.29,7.82,13.69,7.12c-0.01-0.03-0.02-0.07-0.01-0.1c-2.37-0.34-4.36-1.99-6.09-3.95c-2.55-2.92-4.32-6.7-4.73-10.68
				c-0.01-0.12,0.16-0.15,0.2-0.03c0.63,2.02,1.09,4.08,2.02,5.97c0.71,1.43,1.61,2.76,2.59,3.99c1.51,1.89,3.76,3.94,6.2,4.5
				c0.02,0,0.03,0,0.05,0c0.04,0.01,0.08,0.02,0.11,0.04c0.21,0.04,0.42,0.08,0.63,0.09c0.13-0.02,0.25-0.04,0.37-0.07
				c0.03-0.01,0.05,0.04,0.02,0.05c-0.03,0.01-0.06,0.02-0.09,0.03c0.3,0.01,0.59,0.01,0.89-0.04c0.02,0,0.03,0.04,0.01,0.04
				c-0.37,0.07-0.72,0.11-1.07,0.12c2.2,0.72,4.58,1.77,6.81,0.91c-1.72-0.18-3.26-1.67-4.53-2.83c-2.22-2.02-4.07-4.78-5.5-7.47
				c-0.08-0.15,0.12-0.29,0.22-0.15c1.49,2.09,2.83,4.24,4.54,6.15c1.44,1.62,4.03,4.38,6.31,4.17c0.04,0,0.05,0.06,0.01,0.07
				c-0.22,0.05-0.42,0.07-0.64,0.08c-0.59,0.38-1.24,0.6-1.91,0.7c3,1.66,4.86,5.86,4.91,9.46c0.22-1.58,0.41-3.14,0.33-4.78
				c-0.11-2.14-0.61-4.23-1.37-6.21c-1.64-4.3-4.8-7.66-8.32-10.28c-0.09-0.06-0.02-0.2,0.07-0.15c5.29,2.67,9.6,9.37,10.2,15.99
				c2.23,3.6,3.27,9.03,1.62,13.12c0.51-0.71,1.08-1.36,1.64-2.02c1.29-1.52,1.96-3.13,2.28-5.13c0.73-4.62-0.85-8.71-3.07-12.57
				c-0.04-0.06,0.05-0.14,0.09-0.08c2.65,3.22,3.89,7.5,3.65,11.73c-0.1,1.77-0.48,3.67-1.5,5.11c-1.15,1.63-2.66,2.91-3.81,4.55
				c-0.06,0.09-0.19-0.02-0.14-0.11c0.06-0.14,0.13-0.28,0.2-0.41c-0.01-0.02-0.01-0.04,0-0.07c1.55-4.36,1.05-8.92-0.9-13.02
				c0.06,2.16-0.28,4.29-1.15,6.24c-0.03,0.05-0.1,0.02-0.09-0.04c0.04-0.27,0.08-0.54,0.11-0.8c-0.33-4.09-1.81-8.33-5.36-10.4
				c-0.03-0.02-0.05-0.04-0.07-0.07c-1.88,0.06-3.92-0.67-5.5-1.46c-5.37,1.57-11.07-1.79-13.99-6.62c-0.06,0.54-0.15,1.07-0.26,1.6
				c-0.31,1.49-0.8,3.4-1.78,4.56c-0.12,0.15-0.34-0.03-0.26-0.2c0.11-0.24,0.22-0.49,0.33-0.74c-0.02-0.02-0.02-0.04-0.02-0.07
				c0.75-5.26-2.38-9.81-5.68-13.48c-1.38-0.17-2.75-0.37-4.14-0.34c-1.79,0.04-2.91,0.75-4.24,1.8c0.01,0.09-0.06,0.19-0.15,0.21
				c-0.01,0-0.01,0.01-0.02,0.01c-0.28,0.02-0.54,0.06-0.81,0.11c-0.01,0.07-0.07,0.13-0.14,0.13c-0.14,0.01-0.28,0.01-0.42,0
				c-3.36,0.93-5.22,4.1-6.61,7.45c-0.01,0.03-0.03,0.03-0.04,0.05c-0.22,2.32-0.44,4.65-0.22,6.98c0.63,7,4.06,9.3,3.86,9.2
				c-2.71-1.29-4.94-3.74-6.44-6.5c0.47,1.86,0.74,3.81,0.85,5.69c0.15,2.34-0.03,5.41-1.15,7.48c-0.04,0.07-0.13,0.08-0.18,0.04
				c-0.06,0.28-0.12,0.57-0.18,0.86c-0.02,0.1-0.16,0.08-0.17-0.02c-0.1-1.61,0.14-2.99-0.27-4.6c-0.25-0.98-0.59-1.92-0.82-2.9
				c-0.24,4.12-0.05,8.17,3.45,10.96c0.02,0.02,0.02,0.03,0.03,0.05c0.41,0.04,0.84,0.04,1.27-0.02c0.1-0.01,0.11,0.14,0.03,0.17
				c-3.55,1.42-6.67-1.98-8.38-4.89C20.25,54.27,20.19,49.62,22.04,45.2z M39.26,26.99c-0.22-1.96,1.29-3.89,2.81-4.78
				c0.05-0.03,0.09,0.04,0.05,0.08c-0.79,0.6-1.39,1.35-1.85,2.26c-0.3,0.6-0.39,1.23-0.47,1.88c0.14-0.12,0.31-0.22,0.47-0.31
				c0-0.03,0.01-0.05,0.02-0.07c0.79-1.48,2.08-2.67,3.75-2.63c0.11,0,0.12,0.17,0.01,0.17c-1.42,0.12-2.39,1.05-3.13,2.23
				c0.42-0.15,0.88-0.25,1.35-0.3c0.81-0.76,1.9-0.98,2.99-0.93c0.13,0.01,0.14,0.21,0.01,0.21c-0.87,0.03-1.69,0.19-2.37,0.67
				c1.48-0.06,3.07,0.21,4.29,0.56c-0.3-0.33-0.6-0.65-0.9-0.96c-1.38-1.45-2.98-3.07-4.89-3.68c-2.73-0.87-2.36,3.77-2.31,5.83
				C39.14,27.13,39.2,27.06,39.26,26.99z M33.79,29.86c-0.55,0.29-1.08,0.68-1.51,1.13c-0.08,0.08-0.19-0.03-0.13-0.12
				c0.69-0.95,1.7-1.7,2.82-2c0.45-0.31,0.92-0.57,1.41-0.75c-0.24-0.05-0.49-0.1-0.72-0.12c-1.19-0.1-2.14,0.13-2.98,1.07
				c-0.02,0.02-0.06,0-0.05-0.03c0.58-1.83,3.65-2.14,5.17-1.23c0.16-0.01,0.32-0.02,0.48-0.01c-1.89-0.9-4.44-2.4-5.88-0.18
				c-1.07,1.64-1.03,4.56-1.23,6.5C31.65,32.6,32.6,31.05,33.79,29.86z"/>
			<path class="st4" d="M89.27,56.25c1.5,1.42,4.28,2.02,6.01,0.67c-2.6,0.99-5.52-2.24-4.73-5.04c0.04-0.14,0.23-0.13,0.25,0.02
				c0.15,1.45,0.34,2.57,1.31,3.67c0.92,1.05,2.16,1.44,3.46,1.09c0.09-0.08,0.18-0.17,0.26-0.27c0.05-0.06,0.13,0.01,0.1,0.08
				c-1.27,2.83-5.28,1.79-6.75-0.14C89.14,56.28,89.23,56.21,89.27,56.25z"/>
			<path class="st4" d="M84.44,33.12c3.71,0.03,6.97,1.99,8.85,5.4c1.57,2.87,1.53,6.57-0.44,9.18c-0.14,0.24-0.31,0.47-0.53,0.67
				c-0.05,0.05-0.16-0.01-0.11-0.09c1.11-1.76,0.22-3.99-0.64-5.67c-0.97-1.9-2.4-2.94-4.18-3.9c-0.13-0.07-0.05-0.29,0.09-0.25
				c2.28,0.75,3.85,2.27,4.94,4.48c0.46,0.92,0.85,2.11,0.82,3.22c0.77-2.56,0.64-5.14-0.71-7.64c-1.72-3.17-4.84-4.67-8.11-5.22
				C84.32,33.31,84.34,33.12,84.44,33.12z"/>
			<path class="st4" d="M85.6,31.2c1.08,0.89,2.07,1.46,3.49,1.41c0.76-0.03,1.49-0.29,2.2-0.62c-0.68-0.04-1.39-0.28-2.03-0.62
				c-2-1.05-3.08-2.91-3.37-5.22c-0.02-0.13,0.17-0.16,0.21-0.04c0.54,1.87,1.25,3.21,2.76,4.33c1.12,0.82,2.48,1.31,3.71,0.87
				c0.16-0.09,0.32-0.18,0.48-0.27c0.02-0.01,0.04-0.01,0.06,0.01c0.15-0.09,0.3-0.21,0.45-0.34c0.05-0.04,0.14,0.01,0.1,0.07
				c-0.42,0.66-0.97,1.01-1.56,1.14c-2.17,1.46-4.81,1.78-6.61-0.63C85.43,31.22,85.53,31.15,85.6,31.2z"/>
			<path class="st4" d="M70.04,20.65c3.73-1.54,7.57,2.61,8.98,5.83c0.03,0.08-0.08,0.13-0.12,0.06c-0.24-0.38-0.49-0.75-0.75-1.1
				c-1.64-1.59-4.06-2.25-6.23-1.81c-0.09,0.02-0.16-0.11-0.07-0.17c1.45-0.94,3.55-0.56,5.11,0.48c-1.78-2.01-3.99-3.42-6.88-3.07
				C69.95,20.87,69.94,20.69,70.04,20.65z"/>
			<path class="st4" d="M42.32,14.3c1.32-3.51,5.12-4.73,8.24-3.52c1.78,0.69,3.33,1.84,4.91,2.92c2.08,1.42,5.37,3.02,6.71-0.24
				c0.03-0.08,0.15-0.05,0.16,0.04c0,0.2-0.04,0.4-0.09,0.59c0,0,0,0,0,0c-0.81,3.69-4.15,5.08-7.33,3.51
				c-0.11-0.05-0.04-0.25,0.08-0.21c2.52,0.86,5.38,0.15,6.68-2.29c-0.4,0.45-0.95,0.77-1.5,0.84c-1.94,0.23-3.69-0.94-5.23-2.07
				c-1.76-1.29-3.64-2.44-5.74-2.97c-2.86-0.71-5.1,1.27-6.71,3.53C42.42,14.55,42.28,14.42,42.32,14.3z"/>
			<path class="st4" d="M16.63,33.37c0.15,0.06,0.31,0.11,0.46,0.16c3.26,0.22,3.48-3.18,4.44-5.69c0.75-1.96,1.93-3.95,3.88-4.69
				c0.06-0.02,0.09,0.07,0.05,0.1c-2.53,1.94-3.29,4.46-4.29,7.45c-0.5,1.51-1.28,2.89-2.56,3.19c2.27,0.35,4.38-0.25,5.54-2.88
				c0.03-0.08,0.16-0.03,0.13,0.05c-1.09,3.29-4.3,4.21-6.99,2.78c-0.1-0.03-0.2-0.05-0.3-0.09c-0.05-0.02-0.08-0.08-0.08-0.13
				c-0.11-0.07-0.21-0.13-0.31-0.2C16.59,33.41,16.6,33.36,16.63,33.37z"/>
			<path class="st4" d="M23.15,34.72c0.06-0.05,0.12,0.05,0.08,0.1c-2.96,3.28-2.66,7.46-2.24,11.64c0.01,0.12-0.15,0.14-0.18,0.03
				C19.51,42.58,19.82,37.38,23.15,34.72z"/>
			<path class="st1" d="M69.14,13.5c3.02,0.36,5.99,1.21,8.93,2.03c2.69,0.75,5.35,1.47,7.95,2.52c4.69,1.91,8.7,5.08,11.33,9.68
				c0.07,0.12-0.09,0.22-0.16,0.11c-2.97-4.24-7.07-6.91-11.65-8.82c-2.5-1.04-5.08-1.85-7.62-2.78c-2.9-1.06-5.8-1.94-8.82-2.5
				C68.94,13.71,69,13.49,69.14,13.5z"/>
			<path class="st1" d="M79.84,19.33c2.16,0.92,3.81,2.11,4.77,4.43c1.01,2.44,1.29,5.13,3.41,6.87c0.07,0.06-0.02,0.18-0.08,0.13
				c-1.57-1.12-2.47-2.59-3.24-4.4c-0.48-1.11-0.89-2.26-1.48-3.31c-0.84-1.49-2.13-2.6-3.45-3.58
				C79.7,19.4,79.75,19.29,79.84,19.33z"/>
			<path class="st1" d="M79.87,21.3c3.26,1.77,2.24,5.66,4.02,8.48c0.05,0.08-0.06,0.17-0.12,0.1c-2.08-2.46-1.73-6-4.11-8.27
				C79.51,21.47,79.69,21.2,79.87,21.3z"/>
			<path class="st1" d="M62.26,12.98c4.13,1.55,8.47,2.33,12.75,3.28c3.76,0.83,7.61,1.96,10.74,4.41c0.04,0.03-0.01,0.11-0.05,0.08
				c-3.58-2.41-7.69-3.11-11.8-3.83c-4.05-0.71-8.05-1.68-11.71-3.73C62.09,13.13,62.15,12.93,62.26,12.98z"/>
			<path class="st1" d="M38.76,8.28c4.51-4.43,10.67-4.32,16.39-3.22c6.63,1.27,12.79,4.44,19.11,6.76c0.14,0.05,0.1,0.3-0.06,0.25
				c-5.75-1.84-11.37-4.16-17.23-5.61C51.05,4.98,44.05,4.38,38.94,8.5C38.81,8.6,38.65,8.39,38.76,8.28z"/>
			<path class="st1" d="M50.32,11.31c2.89,1.4,4.85,5.05,8.35,4.85c0.08,0,0.08,0.12,0,0.14c-2.52,0.47-4.51-1.24-6.47-2.66
				c-1.12-0.81-2.2-1.62-3.54-1.94c-2.27-0.55-4.29,1.09-5.43,3.01c-0.07,0.12-0.28,0.06-0.23-0.09
				C44.12,11.19,47.26,9.82,50.32,11.31z"/>
			<path class="st1" d="M71.51,28.55c1.98,0.27,3.79,1.22,5.25,2.66c1.82,1.8,2.74,4.27,4.15,6.39c1.47,2.22,3.15,4.28,4.15,6.82
				c0.96,2.43,1.4,5,1.35,7.63c0,0.02-0.03,0.02-0.03,0c-0.3-2.61-0.76-4.99-1.95-7.32c-1.13-2.19-2.59-4.15-4.02-6.11
				c-1.38-1.9-2.21-4.14-3.67-5.98c-1.43-1.8-3.35-2.86-5.32-3.83C71.26,28.75,71.37,28.53,71.51,28.55z"/>
			<path class="st1" d="M63.8,25.92c2.67,2.13,5.64,3.81,8.23,6.05c2.32,2,4.17,4.53,5.34,7.45c0.02,0.05-0.05,0.09-0.08,0.04
				c-3.04-5.83-9.02-9.12-13.6-13.4C63.6,25.97,63.71,25.85,63.8,25.92z"/>
			<path class="st1" d="M63.09,22.43c-0.09-0.08,0.01-0.24,0.11-0.17c1.75,1.08,3.33,2.34,5.23,3.14c2.01,0.85,4.12,1.36,6.14,2.15
				c1.49,0.58,2.83,1.4,4.03,2.51c1.49,1.39,2.59,3.1,4.54,3.82c0.09,0.03,0.06,0.18-0.03,0.15c-1.48-0.41-2.63-1.29-3.77-2.34
				c-1.68-1.55-3.28-2.74-5.41-3.53c-1.94-0.72-3.97-1.15-5.81-2.15L63.09,22.43z"/>
			<path class="st1" d="M56.46,20.34c2.3,1.69,3.16,4.68,4.2,7.3c1.47,3.71,4.07,6.85,6.99,9.35c0.17,0.15-0.05,0.4-0.23,0.26
				c-2.68-2.13-5-4.59-6.65-7.7c-1.59-3.01-2.24-6.36-4.46-9.01C56.24,20.45,56.34,20.26,56.46,20.34z"/>
			<path class="st1" d="M47.3,15.64c1.82,0.53,3.63,1.26,5.05,2.61c1.47,1.39,2.56,3.31,3.39,5.18c0.82,1.85,1.48,3.77,2.1,5.7
				c0.7,2.21,1.32,4.47,2.86,6.2c0.07,0.08-0.03,0.2-0.11,0.12c-2.52-2.28-3.32-5.83-4.5-8.96c-1.81-4.76-4.32-8.54-8.88-10.59
				C47.06,15.85,47.15,15.6,47.3,15.64z"/>
			<path class="st1" d="M38.73,15.38c1.67-0.71,3.74,0.26,5.18,1.12c3.98,2.37,6.84,6.89,8.9,11.07c0.07,0.14-0.11,0.26-0.19,0.13
				c-1.98-3.4-4.32-6.47-7.21-9.03c-1.32-1.16-2.94-2.07-4.62-2.45c-2.34-0.52-3.37,1.2-4.35,3.07c-0.07,0.14-0.29,0.06-0.25-0.1
				C36.6,17.46,37.08,16.07,38.73,15.38z"/>
			<path class="st1" d="M27.35,34.83c0.07-3.4,1.17-6.4,3.91-8.25c0.13-0.09,0.24,0.11,0.13,0.21c-2.36,2.05-3.05,5.74-3.04,8.8
				c0.01,3.67,1.19,6.95,2.58,10.25c0.06,0.14-0.15,0.23-0.22,0.11C28.58,42.51,27.25,38.98,27.35,34.83z"/>
			<path class="st1" d="M24.22,43.03c0.08-0.12,0.26,0.02,0.19,0.15c-2.56,4.79-2.45,11.57,0.3,16.2c0.1,0.17-0.13,0.38-0.26,0.23
				C20.56,55.15,21.02,47.72,24.22,43.03z"/>
			<path class="st1" d="M24.53,34.62c0.07-0.06,0.16,0.06,0.1,0.13c-2.15,2.4-2.35,5.34-2.51,8.47c-0.01,0.22-0.29,0.23-0.31,0.01
				C21.43,39.99,21.88,36.6,24.53,34.62z"/>
			<path class="st8" d="M19.72,33.36c1.64-0.61,1.9-2.54,2.3-4.13c0.3-1.19,0.67-2.28,1.34-3.29c1.17-1.76,2.91-2.89,4.96-2.8
				c0.08,0,0.12,0.14,0.03,0.16c-2.91,0.66-4.73,3.23-5.49,6.14c-0.43,1.65-1.06,4.27-3.09,4.2C19.62,33.64,19.57,33.42,19.72,33.36
				z"/>
		</g>
	</g>
	<g>
		<g>
			<path class="st9" d="M58.78,76.14c0.27-0.04,0.53-0.07,0.8-0.09c-1.19,1.12-1.91,2.79-3.5,3.44c-3,1.22-4.01-1.95-5.06-3.84
				c1.37,0.34,3.42,0.79,4.83,0.84C57.13,76.53,57.54,76.34,58.78,76.14z"/>
			<path class="st10" d="M53.47,77.19c-0.93-0.36-1.71-0.92-2.45-1.53c0,0,0-0.01,0-0.01c1.37,0.34,3.42,0.79,4.83,0.84
				c1.27,0.05,1.69-0.15,2.93-0.34c0.27-0.04,0.53-0.07,0.8-0.09c-0.15,0.14-0.3,0.3-0.44,0.46C57.36,77.3,55.36,77.93,53.47,77.19z
				"/>
			<path class="st7" d="M56.25,76.83c-1.61-0.12-3.08-0.49-4.59-0.9c-0.01-0.02-0.02-0.03-0.04-0.04c-0.11-0.13,2.75,0.35,4.06,0.57
				c1.23,0.2,2.45-0.36,3.68-0.45c-0.14-2.71-1-9.64-1.2-11.42c0,0,0.01,0.01,0.01,0.01c0.51,1.05,0.6,2.08,0.78,3.2
				c0.15,0.89,1.09,6.92,1.33,7.93c0.11,0.48-0.79,0.7-0.86,0.67c-1.82,1.14-2.29,1.31-3.74,1.35c-1.19,0.03-2.03,0.19-3.36-1.1
				c0.74,0.44,1.21,0.93,3.89,0.7c0.22-0.02,1.81-0.46,1.79-0.6C57.99,76.63,56.42,76.84,56.25,76.83z"/>
			<path class="st11" d="M57.86,64.49c0.41,3.52,1.6,7.48,0.96,11.01c-0.08,0.47-1.76,0.71-1.73,0.22
				c0.24-3.54,0.56-7.67,0.53-11.22C57.62,64.39,57.85,64.38,57.86,64.49z"/>
		</g>
		<g>
			<g>
				<path class="st9" d="M31.77,56.22c2.23-2.56,4.4-2.17,7.84-2.09c1.92,0.05,3.96,0.41,5.82,0.85c0.82,0.19,1.61,0.39,2.38,0.72
					c0.51,0.22,1.11-1.87,1.04-2.11c-0.04-0.14,0.19-0.07,0.24-0.02c0.72,0.75,0.87,1.57,0.56,2.47c-0.46,1.35-2.97,0.2-3.72,0
					c-2.46-0.65-5.28-1.06-7.83-0.87c-2.69,0.2-4.59,1.95-6.9,3.01C31.03,58.25,31.6,56.42,31.77,56.22z"/>
				<g>
					<g>
						<g>
							<path class="st12" d="M32.94,54.22c0.56-0.62,1.38-1.37,1.93-1.64c0.68-0.42,2.92-0.68,5.43-0.72
								c0.45,0.04,0.9,0.07,1.35,0.12c1.7,0.19,3.49,0.35,5.13,0.84c0.66,0.2,1.31,0.45,1.98,0.62c0.06,0.48,0.12,1.44,0.12,1.67
								c0.02-0.03,0.05-0.06,0.06-0.09c0.11-0.19,0.23-0.43,0.39-0.61c0.02,0.41-0.01,0.83-0.13,1.22c-0.3,0.28-0.61,0.58-0.97,0.79
								c-3.5-1.3-7.26-2.28-11.11-1.41c-2.26,0.51-3.97,1.14-5.42,2.57c-0.06-0.04-0.12-0.07-0.18-0.11
								C31.44,56.48,32.29,55.16,32.94,54.22z"/>
						</g>
					</g>
					<g>
						<g>
							<path class="st12" d="M31.5,57.41c2.83-2.91,6.73-4.4,10.78-3.73c2.06,0.34,3.94,1.13,5.93,1.72
								c0.38,0.11,0.73,0.07,1.06-0.07c-0.02,0.11-0.05,0.2-0.08,0.3c-0.3,0.27-0.61,0.58-0.97,0.79c-3.5-1.3-7.26-2.28-11.11-1.41
								c-2.26,0.51-3.97,1.14-5.42,2.57c-0.06-0.04-0.12-0.07-0.18-0.11C31.5,57.46,31.5,57.43,31.5,57.41z"/>
						</g>
					</g>
				</g>
				<path class="st10" d="M51.62,54.74c-0.06-0.99-0.85-1.87-1.25-2.78c0.9,0.84,1.91,2.06,2.1,3.29c0.17,1.12-0.65,1.7-1.49,2.34
					c0,0-0.01,0-0.01,0C51.31,56.66,51.68,55.76,51.62,54.74z"/>
				<path class="st10" d="M53.57,55.71c0.09-0.06,0.28,0.09,0.18,0.17c-0.41,0.35-0.49,0.84-0.8,1.25c-0.11,0.14-0.42-0.05-0.38-0.2
					C52.71,56.43,53.13,56,53.57,55.71z"/>
			</g>
		</g>
		<g>
			<g>
				<g>
					<path class="st9" d="M76.36,62.91c-0.98,0.51-1.94,1.46-3.84,2.18c-1.62,0.61-2.85,0.8-4.58,0.91c-2.4,0.15-4.84,0-7.02-0.89
						c0.06-0.23,0.19-0.49,0.3-0.69c0.43-1.48,1.07-2.82,2.01-3.88c2.29-1.89,5.22-2.87,8.4-2.2c1.13,0.24,1.95,0.54,2.63,1.41
						c0.82,1.06,0.71,1.52,1.02,2.65C75.34,62.65,75.78,62.75,76.36,62.91z M74.54,62.55c-0.03-0.12,0.05-0.27,0.16-0.39
						c-0.56-1.19-1.43-2.41-2.6-2.8c-1.52-0.5-3.23-0.42-4.79-0.11c-2.81,0.56-4.07,2.23-5.27,4.29c-0.1,1.09,0.31,1.26,1.52,1.37
						c1.24,0.12,2.5,0.21,3.75,0.14c0.77-0.04,4.7-0.45,6.43-1.39c0.01-0.02,0.01-0.04,0.02-0.07c0.12-0.22,0.69-0.67,0.77-0.95
						C74.54,62.62,74.55,62.59,74.54,62.55z"/>
					<g>
						<path class="st7" d="M75.06,62.64c-1.5,2.27-4.99,2.79-6.91,2.89c-1.19,0.07-5.21-0.42-5.96-0.65
							c-0.02-0.01-0.04-0.02-0.06-0.03c-0.22-0.14-0.3-0.31-0.31-0.5c-0.05,0.07-0.33,0.27-0.28,0.18c0.45-0.9,0.77-1.86,1.31-2.73
							c0.98-1.57,3.25-2.67,5.22-3.03c0.45-0.08,0.91-0.15,1.38-0.18c1.57-0.12,3.3,0.05,4.33,1.24
							C74.33,60.46,74.89,61.78,75.06,62.64z"/>
						<path class="st13" d="M74.44,62.47c-0.74-1.79-1.39-3.45-4.02-3.5c-2.07-0.03-4.92,0.75-6.55,2.08
							c-0.35,0.38-2.01,2.85-1.5,3.29c0.21,0.18,1.11,0.45,1.31,0.5c1.18,0.27,2.54,0.3,3.76,0.32
							C69.74,65.22,73.47,64.74,74.44,62.47z"/>
					</g>
					<g>
						<defs>
							<path id="SVGID_5_" d="M74.44,62.47c-0.74-1.79-1.39-3.45-4.02-3.5c-2.07-0.03-4.92,0.75-6.55,2.08
								c-0.35,0.38-2.01,2.85-1.5,3.29c0.21,0.18,1.11,0.45,1.31,0.5c1.18,0.27,2.54,0.3,3.76,0.32
								C69.74,65.22,73.47,64.74,74.44,62.47z"/>
						</defs>
						<clipPath id="SVGID_1_">
							<use xlink:href="#SVGID_5_"  style="overflow:visible;"/>
						</clipPath>
						<g class="st14">
							<g>
								<path class="st15" d="M68.12,62.13c0,2.15,1.4,3.9,3.14,3.9c1.73,0,3.13-1.75,3.13-3.9c0-2.15-1.4-3.9-3.13-3.9
									C69.52,58.23,68.12,59.97,68.12,62.13z"/>
								<path class="st16" d="M71.25,58.5c1.58,0,2.87,1.59,2.87,3.56c0,1.97-1.28,3.57-2.86,3.57c-1.58,0-2.87-1.6-2.87-3.56
									C68.39,60.09,69.67,58.5,71.25,58.5z"/>
								<path class="st17" d="M69.31,61.91c0,1.36,0.88,2.46,1.98,2.46c1.09,0,1.97-1.1,1.97-2.46c0-1.36-0.89-2.46-1.98-2.46
									C70.2,59.45,69.31,60.55,69.31,61.91z"/>
								<path class="st18" d="M72.04,60.46c0.14,0.6,0.58,1.03,0.98,0.95c0.4-0.08,0.6-0.64,0.46-1.24
									c-0.14-0.61-0.58-1.03-0.98-0.95C72.1,59.3,71.9,59.86,72.04,60.46z"/>
								<path class="st16" d="M69.69,63.87c1.87,1.89,3.71,0.42,3.8-1.78c0-0.06,0.42,0.29,0.41,0.34
									c-0.09,1.21-0.61,2.31-1.85,2.82c-1.07,0.44-2.04-0.2-2.63-0.98C69.38,64.21,69.64,63.82,69.69,63.87z"/>
							</g>
							<path class="st16" d="M69.04,60.9c0,0-0.34,1.41,0.4,2.63l-0.28,0.16C69.16,63.68,68.23,62.56,69.04,60.9z"/>
						</g>
					</g>
				</g>
				<g>
					<path class="st9" d="M33.99,62.37c0.3-0.91,0.2-1.27,1.03-2.11c0.68-0.7,1.51-0.94,2.66-1.13c3.21-0.53,6.19,0.24,8.51,1.75
						c0.96,0.84,1.61,1.91,2.04,3.09c0.12,0.16,0.25,0.37,0.31,0.55c-2.21,0.71-4.67,0.83-7.11,0.72c-1.76-0.09-3.01-0.24-4.64-0.72
						c-1.93-0.57-2.89-1.33-3.89-1.73C33.48,62.65,33.92,62.57,33.99,62.37z M34.73,62.57c0.08,0.22,0.66,0.59,0.78,0.76
						c0.01,0.02,0.02,0.04,0.02,0.05c1.75,0.76,5.73,1.08,6.51,1.11c1.26,0.05,2.54-0.02,3.8-0.12c1.22-0.09,1.64-0.22,1.54-1.1
						c-1.21-1.65-2.49-2.97-5.33-3.42c-1.58-0.25-3.32-0.31-4.85,0.09c-1.18,0.31-2.06,1.28-2.63,2.23
						c0.11,0.09,0.19,0.21,0.16,0.31C34.72,62.52,34.73,62.55,34.73,62.57z"/>
					<g>
						<g>
							<path class="st7" d="M35.66,60.26c1.03-0.95,2.79-1.08,4.38-0.99c0.48,0.03,0.94,0.08,1.4,0.15
								c1.99,0.29,4.29,1.16,5.28,2.41c0.55,0.69,0.87,1.46,1.33,2.18c0.05,0.08-0.24-0.09-0.28-0.14c-0.01,0.15-0.09,0.29-0.31,0.4
								c-0.02,0.01-0.04,0.02-0.06,0.03c-0.76,0.18-4.82,0.57-6.03,0.52c-1.95-0.08-5.48-0.49-7-2.3
								C34.53,61.83,35.1,60.78,35.66,60.26z"/>
							<path class="st13" d="M42.07,64.52c1.24-0.02,2.61-0.04,3.81-0.26c0.2-0.04,1.12-0.26,1.33-0.4
								c0.52-0.35-1.16-2.32-1.52-2.62c-1.65-1.06-4.53-1.68-6.63-1.65c-2.66,0.03-3.32,1.36-4.06,2.79
								C35.98,64.19,39.75,64.56,42.07,64.52z"/>
						</g>
					</g>
				</g>
			</g>
			<g>
				<defs>
					<path id="SVGID_7_" d="M42.07,64.52c1.24-0.02,2.61-0.04,3.81-0.26c0.2-0.04,1.12-0.26,1.33-0.4c0.52-0.35-1.16-2.32-1.52-2.62
						c-1.65-1.06-4.53-1.68-6.63-1.65c-2.66,0.03-3.32,1.36-4.06,2.79C35.98,64.19,39.75,64.56,42.07,64.52z"/>
				</defs>
				<clipPath id="SVGID_2_">
					<use xlink:href="#SVGID_7_"  style="overflow:visible;"/>
				</clipPath>
				<g class="st19">
					<g>
						<path class="st15" d="M40.87,62.88c0,1.95,1.27,3.54,2.85,3.54c1.57,0,2.84-1.58,2.84-3.54c0-1.95-1.27-3.54-2.84-3.54
							C42.14,59.34,40.87,60.93,40.87,62.88z"/>
						<path class="st16" d="M43.71,59.59c1.44,0,2.6,1.45,2.6,3.24c0,1.79-1.16,3.24-2.6,3.24c-1.44,0-2.6-1.45-2.6-3.24
							C41.11,61.04,42.28,59.59,43.71,59.59z"/>
						<path class="st17" d="M41.95,62.69c0,1.23,0.8,2.23,1.8,2.23c0.99,0,1.79-1,1.79-2.23c0-1.23-0.81-2.23-1.79-2.23
							C42.75,60.45,41.95,61.45,41.95,62.69z"/>
						<path class="st18" d="M44.43,61.37c0.13,0.55,0.53,0.93,0.89,0.86c0.36-0.07,0.55-0.58,0.42-1.13
							c-0.13-0.55-0.53-0.93-0.89-0.86C44.49,60.31,44.3,60.82,44.43,61.37z"/>
						<path class="st16" d="M42.3,64.47c1.7,1.72,3.37,0.38,3.45-1.61c0-0.05,0.38,0.27,0.38,0.31c-0.08,1.1-0.55,2.1-1.68,2.56
							c-0.97,0.4-1.85-0.18-2.39-0.89C42.01,64.77,42.25,64.42,42.3,64.47z"/>
					</g>
					<path class="st16" d="M41.7,61.77c0,0-0.31,1.28,0.37,2.39l-0.25,0.14C41.82,64.29,40.96,63.28,41.7,61.77z"/>
				</g>
			</g>
		</g>
		<g>
			<path class="st12" d="M60.56,54.35c2.27-0.85,3.99-2.15,5.87-3.57c1.54-1.17,3.17-2.16,5.19-2.26c2.43-0.12,4.74,1.82,5.87,3.87
				c0.25,0.27,0.48,0.55,0.63,0.91c0.03,0.07,0.01,0.13-0.04,0.16c-1.02-0.93-2.42-1.46-3.67-2.08c-0.64-0.31-1.45-0.73-2.21-0.77
				c-0.17-0.05-0.33-0.1-0.5-0.15c-1.57,0.44-3.09,2.29-4.13,3.19c-0.39,0.34-0.79,0.71-1.21,1.06c-0.55,0.67-1.14,1.31-1.85,1.64
				c-1.71,0.8-3.33,0.15-4.08-1.46C60.33,54.72,60.33,54.44,60.56,54.35z"/>
			<path class="st12" d="M63.49,55.52c1.36-0.26,2.77-2.22,3.68-3.09c1.99-1.88,4.05-3.5,6.88-1.98c1.51,0.81,2.79,1.88,4.05,3
				c-0.01,0.01-0.01,0.02-0.02,0.02c-1.02-0.93-2.42-1.46-3.67-2.08c-0.64-0.31-1.45-0.73-2.21-0.77c-0.17-0.05-0.33-0.1-0.5-0.15
				c-1.57,0.44-3.09,2.29-4.13,3.19c-0.39,0.34-0.79,0.71-1.21,1.06c-0.55,0.67-1.14,1.31-1.85,1.64c-1.71,0.8-3.33,0.15-4.08-1.46
				c-0.02-0.05-0.04-0.11-0.05-0.17C61.36,55.23,62.31,55.74,63.49,55.52z"/>
			<path class="st10" d="M58.43,54.6c0.02-0.08,0.14,0.02,0.15,0.06c0.17,0.86,1.01,1.34,1.31,2.12c0.03,0.08,0.07,0.22-0.02,0.29
				c-0.02,0.01-0.04,0.03-0.06,0.04c-0.11,0.04-0.25,0-0.33-0.06C58.78,56.53,58.2,55.44,58.43,54.6z"/>
			<path class="st10" d="M57.65,56.38c0.35,0.61,0.93,0.96,1.42,1.44c0.08,0.08,0.12,0.28-0.06,0.24c-0.39-0.07-0.71-0.39-0.96-0.66
				c-0.28-0.3-0.53-0.64-0.62-1.04C57.4,56.22,57.61,56.31,57.65,56.38z"/>
			<path class="st10" d="M60.9,54.94c0.6,0.5,0.92,1.79,2.11,1.33c1.01-0.39,1.85-1.22,2.62-1.93c1.39-1.27,2.6-2.92,4.28-3.86
				c1.48-0.83,2.72-0.6,4.23,0.08c1.41,0.63,2.43,2.2,3.83,2.69c0.06,0.02,0.17,0.19,0.04,0.19c-1.36-0.01-2.78-1.42-3.93-1.97
				c-3.28-1.55-5.47,1.85-7.49,3.76c-1.03,0.97-2.72,2.64-4.34,2.21c-0.96-0.25-1.96-1.54-1.93-2.46
				C60.32,54.65,60.76,54.81,60.9,54.94z"/>
		</g>
		<g>
			<path class="st9" d="M38.73,81.49c0.34-1.17,0.91-2.28,1.82-3.1c1.71-1.55,4.62-1.04,6.76-0.75c0.15,0.08,0.28,0.17,0.37,0.28
				c-1.32,0.18-3.92,0.55-3.81,0.58c0.04,0.01,0.13,0.03,0.22,0.06c-0.01,0.01-0.28,0.1-0.4,0.14c1.61,0.36,3.17,0.87,4.82,1.14
				c2.07,0.33,4.15,0.56,6.23,0.79c2.35,0.27,4.69,0.55,7.05,0.66c0.43,0.02,1.34,0.14,2.25,0.16c1.01,0.1,2.02,0.13,2.95,0.01
				c0.26-0.03,0.32-0.34,0.23-0.52c-0.05-0.1-0.1-0.18-0.14-0.27c0.23,0.09,0.46,0.18,0.68,0.29c0.06,0.03,0.15,0.07,0.24,0.11
				c0.38,0.46,0.65,1.01,0.79,1.58c-0.76,0.39-1.49,0.73-2.19,1.13c-0.06,0.03-0.12,0.07-0.19,0.11c-0.61,0.36-1.2,0.78-1.75,1.33
				c-0.13,0.13-0.26,0.27-0.39,0.41c-0.41,0.35-0.8,0.71-1.19,1.09c-1.26,1.24-2.17,2.8-4.02,3.3c-1.65,0.45-3.87-0.19-5.5-0.43
				c-1.83-0.27-3.77-0.46-5.51-1.06c-1.14-0.39-2.03-1.37-2.6-2.34c-0.49-0.84-0.92-1.7-1.38-2.55c-0.15-0.28-0.3-0.57-0.45-0.85
				c-0.06-0.13-0.12-0.26-0.19-0.39c-0.37-0.75-0.82-1.7-1.62-2.13c-0.71-0.38-1.17,0.24-1.52,0.8c-0.01-0.02-0.02-0.03-0.04-0.05
				c-0.04,0.1-0.08,0.2-0.12,0.3c-0.04,0.07-0.08,0.13-0.12,0.19c-0.25,0.37-0.41,0.77-0.6,1.17c-0.1,0.23-0.28,0.85-0.5,1.12
				C38.71,83.02,38.67,82.25,38.73,81.49z"/>
			<path class="st6" d="M50.96,91.26c1.28,0.45,2.58,0.78,3.9,0.88c1.06,0.17,2.14,0.17,3.26-0.11c0.01,0,0.02-0.01,0.03-0.02
				c-0.4,0.53-0.95,1.05-1.58,1.47c-0.65,0.18-1.3,0.28-1.63,0.32c-1.14,0.14-2.12-0.25-2.96-0.87
				C51.62,92.38,51.27,91.83,50.96,91.26z"/>
			<g>
				<g>
					<g>
						<path class="st7" d="M40.19,79.32c0.08-0.19,0.16-0.36,0.23-0.54c0.43-0.44,0.93-0.72,1.57-0.59c0.27,0.05,0.75,0.2,1.23,0.3
							c-0.32,0.2-0.93,0.34-1.08,0.39c-0.05,0.01-0.09,0.03-0.14,0.04c0.68,0.32,1.62,0.61,1.77,0.65c2.13,0.51,4.29,0.89,6.47,1.16
							c4.06,0.51,8.45,1.17,12.69,1.21c1.44,0.11,2.9,0.08,4.27-0.17c0.32-0.06,0.48-0.48,0.23-0.7c-0.13-0.11-0.25-0.22-0.37-0.33
							c0.41,0.11,0.8,0.29,1.14,0.58c0.31,0.37,0.47,0.81,0.52,1.29c-0.07-0.04-0.14-0.08-0.22-0.1c-3.05,0.16-5.82,4.07-7.48,6.06
							c-1.17,1.39-3.17,1.04-5.11,0.72c-3.24-0.36-6.08-0.8-7.2-1.22c-0.87-0.26-1.45-0.35-1.89-1c-1.74-2.6-2.15-5.81-4.98-7.56
							c-0.2-0.07-0.38-0.16-0.56-0.26c-0.16,0.1-0.3,0.22-0.4,0.38c-0.28,0.48-0.35,0.97-0.96,1.19c-0.01,0-0.02,0-0.03,0
							C40.03,80.32,39.99,79.8,40.19,79.32z"/>
						<path class="st20" d="M45.14,82.59c0.54,0.99,0.96,2.03,1.43,3.05c0.59,1.3,1.56,1.85,2.69,2.15
							c1.48,0.13,2.97,0.41,4.43,0.62c1.89,0.28,4.13,0.96,6.03,0.38c1.23-0.76,2.01-2.29,2.95-3.44c0.89-1.08,2.12-2.34,3.54-2.92
							c-3.97-0.07-7.75-0.41-9.13-0.57c-3.99-0.46-7.87-0.9-11.82-1.64c-0.65-0.12-1.47-0.23-2.28-0.41
							C43.88,80.55,44.54,81.51,45.14,82.59z"/>
						<path class="st13" d="M47.49,82.12c1.36,0.32,2.74,0.49,4.13,0.72c3.23,0.53,6.45,1.1,9.71,1.46
							c0.14,0.99-0.12,1.95-0.26,2.95c-0.01,0.1-0.03,0.21-0.04,0.31c-0.39,0.49-0.82,0.93-1.32,1.24c-1.9,0.58-4.13-0.1-6.03-0.38
							c-1.46-0.22-2.95-0.49-4.43-0.62c-1.13-0.3-2.09-0.85-2.69-2.15c-0.26-0.56-0.5-1.13-0.75-1.69
							C46.12,82.85,46.63,81.92,47.49,82.12z"/>
						<path class="st21" d="M47.49,82.12c1.36,0.32,2.74,0.49,4.13,0.72c3.23,0.53,6.45,1.1,9.71,1.46
							c0.08,0.55,0.03,1.09-0.05,1.63c-0.14-0.18-0.32-0.3-0.58-0.34c-2.25-0.34-4.66-0.05-6.95-0.28
							c-1.57-0.15-3.38-0.27-4.89-0.79c-0.53-0.18-0.73-0.26-1.21-0.02c-0.63,0.32-0.58,1.29-0.45,2.13
							c-0.24-0.27-0.46-0.59-0.64-0.98c-0.26-0.56-0.5-1.13-0.75-1.69C46.12,82.85,46.63,81.92,47.49,82.12z"/>
						<path class="st13" d="M59.79,85.08c-2.42,0.07-4.87-0.01-7.26-0.42c-1.13-0.19-2.26-0.41-3.36-0.71
							c-0.99-0.27-2.6-0.49-3.27-1.28c-0.59-0.7-0.85-1.58-0.93-2.48c0.09,0.02,0.19,0.03,0.28,0.05c3.95,0.74,7.83,1.19,11.82,1.64
							c1.18,0.13,4.12,0.41,7.42,0.52C63.29,83.85,62.09,85.01,59.79,85.08z"/>
					</g>
					<path class="st7" d="M54.96,91.87c1.06,0.08,2.11,0.18,3.1-0.06c-0.36,0.4-0.79,0.71-1.28,0.96c-1.19,0.2-2.66-0.11-3.85-0.53
						c-0.29-0.21-0.57-0.44-0.84-0.67C53.03,91.74,53.98,91.8,54.96,91.87z"/>
				</g>
				<path class="st11" d="M61.93,81.34c1.73,0.04,3.52,0.16,5.14-0.47c0,0,0.01,0.01,0.01,0.02c0.26,1.86-8.85,0.39-10.04,0.3
					c-0.09-0.01-0.19-0.2-0.08-0.2C58.62,81.14,60.27,81.3,61.93,81.34z"/>
				<path class="st11" d="M53.84,90.17c2,0.03,3.92,0.8,5.88-0.09c0.01,0,0.02,0,0.02,0c-0.3,0.67-0.82,1.08-1.44,1.32
					c-0.15,0.03-0.29,0.05-0.43,0.08c-1,0.15-2.05-0.09-3.03-0.45C54.48,90.76,54.15,90.48,53.84,90.17z"/>
			</g>
		</g>
	</g>
</g>
</svg>
